<?xml version="1.0" encoding="utf-8" standalone="no"?>
<!DOCTYPE svg PUBLIC "-//W3C//DTD SVG 1.1//EN"
  "http://www.w3.org/Graphics/SVG/1.1/DTD/svg11.dtd">
<svg xmlns:xlink="http://www.w3.org/1999/xlink" width="1152pt" height="576pt" viewBox="0 0 1152 576" xmlns="http://www.w3.org/2000/svg" version="1.1">
 <metadata>
  <rdf:RDF xmlns:dc="http://purl.org/dc/elements/1.1/" xmlns:cc="http://creativecommons.org/ns#" xmlns:rdf="http://www.w3.org/1999/02/22-rdf-syntax-ns#">
   <cc:Work>
    <dc:type rdf:resource="http://purl.org/dc/dcmitype/StillImage"/>
    <dc:date>2023-02-14T16:59:29.884352</dc:date>
    <dc:format>image/svg+xml</dc:format>
    <dc:creator>
     <cc:Agent>
      <dc:title>Matplotlib v3.5.2, https://matplotlib.org/</dc:title>
     </cc:Agent>
    </dc:creator>
   </cc:Work>
  </rdf:RDF>
 </metadata>
 <defs>
  <style type="text/css">*{stroke-linejoin: round; stroke-linecap: butt}</style>
 </defs>
 <g id="figure_1">
  <g id="patch_1">
   <path d="M 0 576 
L 1152 576 
L 1152 0 
L 0 0 
z
" style="fill: #ffffff"/>
  </g>
  <g id="axes_1">
   <g id="patch_2">
    <path d="M 144 512.64 
L 1036.8 512.64 
L 1036.8 69.12 
L 144 69.12 
z
" style="fill: #ffffff"/>
   </g>
   <g id="PolyCollection_1">
    <path d="M -748.8 135.648 
L -748.8 135.648 
L -747.012613 136.02093 
L -745.225225 136.393859 
L -743.437838 136.766789 
L -741.65045 137.139719 
L -739.863063 137.512649 
L -738.075676 137.885578 
L -736.288288 138.258508 
L -734.500901 138.631438 
L -732.713514 139.004368 
L -730.926126 139.377297 
L -729.138739 139.750227 
L -727.351351 140.123157 
L -725.563964 140.496086 
L -723.776577 140.869016 
L -721.989189 141.241946 
L -720.201802 141.614876 
L -718.414414 141.987805 
L -716.627027 142.360735 
L -714.83964 142.733665 
L -713.052252 143.106595 
L -711.264865 143.479524 
L -709.477477 143.852454 
L -707.69009 144.225384 
L -705.902703 144.598314 
L -704.115315 144.971243 
L -702.327928 145.344173 
L -700.540541 145.717103 
L -698.753153 146.090032 
L -696.965766 146.462962 
L -695.178378 146.835892 
L -693.390991 147.208822 
L -691.603604 147.581751 
L -689.816216 147.954681 
L -688.028829 148.327611 
L -686.241441 148.700541 
L -684.454054 149.07347 
L -682.666667 149.4464 
L -680.879279 149.81933 
L -679.091892 150.192259 
L -677.304505 150.565189 
L -675.517117 150.938119 
L -673.72973 151.311049 
L -671.942342 151.683978 
L -670.154955 152.056908 
L -668.367568 152.429838 
L -666.58018 152.802768 
L -664.792793 153.175697 
L -663.005405 153.548627 
L -661.218018 153.921557 
L -659.430631 154.294486 
L -657.643243 154.667416 
L -655.855856 155.040346 
L -654.068468 155.413276 
L -652.281081 155.786205 
L -650.493694 156.159135 
L -648.706306 156.532065 
L -646.918919 156.904995 
L -645.131532 157.277924 
L -643.344144 157.650854 
L -641.556757 158.023784 
L -639.769369 158.396714 
L -637.981982 158.769643 
L -636.194595 159.142573 
L -634.407207 159.515503 
L -632.61982 159.888432 
L -630.832432 160.261362 
L -629.045045 160.634292 
L -627.257658 161.007222 
L -625.47027 161.380151 
L -623.682883 161.753081 
L -621.895495 162.126011 
L -620.108108 162.498941 
L -618.320721 162.87187 
L -616.533333 163.2448 
L -614.745946 163.61773 
L -612.958559 163.990659 
L -611.171171 164.363589 
L -609.383784 164.736519 
L -607.596396 165.109449 
L -605.809009 165.482378 
L -604.021622 165.855308 
L -602.234234 166.228238 
L -600.446847 166.601168 
L -598.659459 166.974097 
L -596.872072 167.347027 
L -595.084685 167.719957 
L -593.297297 168.092886 
L -591.50991 168.465816 
L -589.722523 168.838746 
L -587.935135 169.211676 
L -586.147748 169.584605 
L -584.36036 169.957535 
L -582.572973 170.330465 
L -580.785586 170.703395 
L -578.998198 171.076324 
L -577.210811 171.449254 
L -575.423423 171.822184 
L -573.636036 172.195114 
L -571.848649 172.568043 
L -570.061261 172.940973 
L -568.273874 173.313903 
L -566.486486 173.686832 
L -564.699099 174.059762 
L -562.911712 174.432692 
L -561.124324 174.805622 
L -559.336937 175.178551 
L -557.54955 175.551481 
L -555.762162 175.924411 
L -553.974775 176.297341 
L -552.187387 176.67027 
L -550.4 177.0432 
L -548.612613 177.41613 
L -546.825225 177.789059 
L -545.037838 178.161989 
L -543.25045 178.534919 
L -541.463063 178.907849 
L -539.675676 179.280778 
L -537.888288 179.653708 
L -536.100901 180.026638 
L -534.313514 180.399568 
L -532.526126 180.772497 
L -530.738739 181.145427 
L -528.951351 181.518357 
L -527.163964 181.891286 
L -525.376577 182.264216 
L -523.589189 182.637146 
L -521.801802 183.010076 
L -520.014414 183.383005 
L -518.227027 183.755935 
L -516.43964 184.128865 
L -514.652252 184.501795 
L -512.864865 184.874724 
L -511.077477 185.247654 
L -509.29009 185.620584 
L -507.502703 185.993514 
L -505.715315 186.366443 
L -503.927928 186.739373 
L -502.140541 187.112303 
L -500.353153 187.485232 
L -498.565766 187.858162 
L -496.778378 188.231092 
L -494.990991 188.604022 
L -493.203604 188.976951 
L -491.416216 189.349881 
L -489.628829 189.722811 
L -487.841441 190.095741 
L -486.054054 190.46867 
L -484.266667 190.8416 
L -482.479279 191.21453 
L -480.691892 191.587459 
L -478.904505 191.960389 
L -477.117117 192.333319 
L -475.32973 192.706249 
L -473.542342 193.079178 
L -471.754955 193.452108 
L -469.967568 193.825038 
L -468.18018 194.197968 
L -466.392793 194.570897 
L -464.605405 194.943827 
L -462.818018 195.316757 
L -461.030631 195.689686 
L -459.243243 196.062616 
L -457.455856 196.435546 
L -455.668468 196.808476 
L -453.881081 197.181405 
L -452.093694 197.554335 
L -450.306306 197.927265 
L -448.518919 198.300195 
L -446.731532 198.673124 
L -444.944144 199.046054 
L -443.156757 199.418984 
L -441.369369 199.791914 
L -439.581982 200.164843 
L -437.794595 200.537773 
L -436.007207 200.910703 
L -434.21982 201.283632 
L -432.432432 201.656562 
L -430.645045 202.029492 
L -428.857658 202.402422 
L -427.07027 202.775351 
L -425.282883 203.148281 
L -423.495495 203.521211 
L -421.708108 203.894141 
L -419.920721 204.26707 
L -418.133333 204.64 
L -416.345946 205.01293 
L -414.558559 205.385859 
L -412.771171 205.758789 
L -410.983784 206.131719 
L -409.196396 206.504649 
L -407.409009 206.877578 
L -405.621622 207.250508 
L -403.834234 207.623438 
L -402.046847 207.996368 
L -400.259459 208.369297 
L -398.472072 208.742227 
L -396.684685 209.115157 
L -394.897297 209.488086 
L -393.10991 209.861016 
L -391.322523 210.233946 
L -389.535135 210.606876 
L -387.747748 210.979805 
L -385.96036 211.352735 
L -384.172973 211.725665 
L -382.385586 212.098595 
L -380.598198 212.471524 
L -378.810811 212.844454 
L -377.023423 213.217384 
L -375.236036 213.590314 
L -373.448649 213.963243 
L -371.661261 214.336173 
L -369.873874 214.709103 
L -368.086486 215.082032 
L -366.299099 215.454962 
L -364.511712 215.827892 
L -362.724324 216.200822 
L -360.936937 216.573751 
L -359.14955 216.946681 
L -357.362162 217.319611 
L -355.574775 217.692541 
L -353.787387 218.06547 
L -352 218.4384 
L -350.212613 218.81133 
L -348.425225 219.184259 
L -346.637838 219.557189 
L -344.85045 219.930119 
L -343.063063 220.303049 
L -341.275676 220.675978 
L -339.488288 221.048908 
L -337.700901 221.421838 
L -335.913514 221.794768 
L -334.126126 222.167697 
L -332.338739 222.540627 
L -330.551351 222.913557 
L -328.763964 223.286486 
L -326.976577 223.659416 
L -325.189189 224.032346 
L -323.401802 224.405276 
L -321.614414 224.778205 
L -319.827027 225.151135 
L -318.03964 225.524065 
L -316.252252 225.896995 
L -314.464865 226.269924 
L -312.677477 226.642854 
L -310.89009 227.015784 
L -309.102703 227.388714 
L -307.315315 227.761643 
L -305.527928 228.134573 
L -303.740541 228.507503 
L -301.953153 228.880432 
L -300.165766 229.253362 
L -298.378378 229.626292 
L -296.590991 229.999222 
L -294.803604 230.372151 
L -293.016216 230.745081 
L -291.228829 231.118011 
L -289.441441 231.490941 
L -287.654054 231.86387 
L -285.866667 232.2368 
L -284.079279 232.60973 
L -282.291892 232.982659 
L -280.504505 233.355589 
L -278.717117 233.728519 
L -276.92973 234.101449 
L -275.142342 234.474378 
L -273.354955 234.847308 
L -271.567568 235.220238 
L -269.78018 235.593168 
L -267.992793 235.966097 
L -266.205405 236.339027 
L -264.418018 236.711957 
L -262.630631 237.084886 
L -260.843243 237.457816 
L -259.055856 237.830746 
L -257.268468 238.203676 
L -255.481081 238.576605 
L -253.693694 238.949535 
L -251.906306 239.322465 
L -250.118919 239.695395 
L -248.331532 240.068324 
L -246.544144 240.441254 
L -244.756757 240.814184 
L -242.969369 241.187114 
L -241.181982 241.560043 
L -239.394595 241.932973 
L -237.607207 242.305903 
L -235.81982 242.678832 
L -234.032432 243.051762 
L -232.245045 243.424692 
L -230.457658 243.797622 
L -228.67027 244.170551 
L -226.882883 244.543481 
L -225.095495 244.916411 
L -223.308108 245.289341 
L -221.520721 245.66227 
L -219.733333 246.0352 
L -217.945946 246.40813 
L -216.158559 246.781059 
L -214.371171 247.153989 
L -212.583784 247.526919 
L -210.796396 247.899849 
L -209.009009 248.272778 
L -207.221622 248.645708 
L -205.434234 249.018638 
L -203.646847 249.391568 
L -201.859459 249.764497 
L -200.072072 250.137427 
L -198.284685 250.510357 
L -196.497297 250.883286 
L -194.70991 251.256216 
L -192.922523 251.629146 
L -191.135135 252.002076 
L -189.347748 252.375005 
L -187.56036 252.747935 
L -185.772973 253.120865 
L -183.985586 253.493795 
L -182.198198 253.866724 
L -180.410811 254.239654 
L -178.623423 254.612584 
L -176.836036 254.985514 
L -175.048649 255.358443 
L -173.261261 255.731373 
L -171.473874 256.104303 
L -169.686486 256.477232 
L -167.899099 256.850162 
L -166.111712 257.223092 
L -164.324324 257.596022 
L -162.536937 257.968951 
L -160.74955 258.341881 
L -158.962162 258.714811 
L -157.174775 259.087741 
L -155.387387 259.46067 
L -153.6 259.8336 
L -151.812613 260.20653 
L -150.025225 260.579459 
L -148.237838 260.952389 
L -146.45045 261.325319 
L -144.663063 261.698249 
L -142.875676 262.071178 
L -141.088288 262.444108 
L -139.300901 262.817038 
L -137.513514 263.189968 
L -135.726126 263.562897 
L -133.938739 263.935827 
L -132.151351 264.308757 
L -130.363964 264.681686 
L -128.576577 265.054616 
L -126.789189 265.427546 
L -125.001802 265.800476 
L -123.214414 266.173405 
L -121.427027 266.546335 
L -119.63964 266.919265 
L -117.852252 267.292195 
L -116.064865 267.665124 
L -114.277477 268.038054 
L -112.49009 268.410984 
L -110.702703 268.783914 
L -108.915315 269.156843 
L -107.127928 269.529773 
L -105.340541 269.902703 
L -103.553153 270.275632 
L -101.765766 270.648562 
L -99.978378 271.021492 
L -98.190991 271.394422 
L -96.403604 271.767351 
L -94.616216 272.140281 
L -92.828829 272.513211 
L -91.041441 272.886141 
L -89.254054 273.25907 
L -87.466667 273.632 
L -85.679279 274.00493 
L -83.891892 274.377859 
L -82.104505 274.750789 
L -80.317117 275.123719 
L -78.52973 275.496649 
L -76.742342 275.869578 
L -74.954955 276.242508 
L -73.167568 276.615438 
L -71.38018 276.988368 
L -69.592793 277.361297 
L -67.805405 277.734227 
L -66.018018 278.107157 
L -64.230631 278.480086 
L -62.443243 278.853016 
L -60.655856 279.225946 
L -58.868468 279.598876 
L -57.081081 279.971805 
L -55.293694 280.344735 
L -53.506306 280.717665 
L -51.718919 281.090595 
L -49.931532 281.463524 
L -48.144144 281.836454 
L -46.356757 282.209384 
L -44.569369 282.582314 
L -42.781982 282.955243 
L -40.994595 283.328173 
L -39.207207 283.701103 
L -37.41982 284.074032 
L -35.632432 284.446962 
L -33.845045 284.819892 
L -32.057658 285.192822 
L -30.27027 285.565751 
L -28.482883 285.938681 
L -26.695495 286.311611 
L -24.908108 286.684541 
L -23.120721 287.05747 
L -21.333333 287.4304 
L -19.545946 287.80333 
L -17.758559 288.176259 
L -15.971171 288.549189 
L -14.183784 288.922119 
L -12.396396 289.295049 
L -10.609009 289.667978 
L -8.821622 290.040908 
L -7.034234 290.413838 
L -5.246847 290.786768 
L -3.459459 291.159697 
L -1.672072 291.532627 
L 0.115315 291.905557 
L 1.902703 292.278486 
L 3.69009 292.651416 
L 5.477477 293.024346 
L 7.264865 293.397276 
L 9.052252 293.770205 
L 10.83964 294.143135 
L 12.627027 294.516065 
L 14.414414 294.888995 
L 16.201802 295.261924 
L 17.989189 295.634854 
L 19.776577 296.007784 
L 21.563964 296.380714 
L 23.351351 296.753643 
L 25.138739 297.126573 
L 26.926126 297.499503 
L 28.713514 297.872432 
L 30.500901 298.245362 
L 32.288288 298.618292 
L 34.075676 298.991222 
L 35.863063 299.364151 
L 37.65045 299.737081 
L 39.437838 300.110011 
L 41.225225 300.482941 
L 43.012613 300.85587 
L 44.8 301.2288 
L 46.587387 301.60173 
L 48.374775 301.974659 
L 50.162162 302.347589 
L 51.94955 302.720519 
L 53.736937 303.093449 
L 55.524324 303.466378 
L 57.311712 303.839308 
L 59.099099 304.212238 
L 60.886486 304.585168 
L 62.673874 304.958097 
L 64.461261 305.331027 
L 66.248649 305.703957 
L 68.036036 306.076886 
L 69.823423 306.449816 
L 71.610811 306.822746 
L 73.398198 307.195676 
L 75.185586 307.568605 
L 76.972973 307.941535 
L 78.76036 308.314465 
L 80.547748 308.687395 
L 82.335135 309.060324 
L 84.122523 309.433254 
L 85.90991 309.806184 
L 87.697297 310.179114 
L 89.484685 310.552043 
L 91.272072 310.924973 
L 93.059459 311.297903 
L 94.846847 311.670832 
L 96.634234 312.043762 
L 98.421622 312.416692 
L 100.209009 312.789622 
L 101.996396 313.162551 
L 103.783784 313.535481 
L 105.571171 313.908411 
L 107.358559 314.281341 
L 109.145946 314.65427 
L 110.933333 315.0272 
L 112.720721 315.40013 
L 114.508108 315.773059 
L 116.295495 316.145989 
L 118.082883 316.518919 
L 119.87027 316.891849 
L 121.657658 317.264778 
L 123.445045 317.637708 
L 125.232432 318.010638 
L 127.01982 318.383568 
L 128.807207 318.756497 
L 130.594595 319.129427 
L 132.381982 319.502357 
L 134.169369 319.875286 
L 135.956757 320.248216 
L 137.744144 320.621146 
L 139.531532 320.994076 
L 141.318919 321.367005 
L 143.106306 321.739935 
L 144.893694 322.112865 
L 146.681081 322.485795 
L 148.468468 322.858724 
L 150.255856 323.231654 
L 152.043243 323.604584 
L 153.830631 323.977514 
L 155.618018 324.350443 
L 157.405405 324.723373 
L 159.192793 325.096303 
L 160.98018 325.469232 
L 162.767568 325.842162 
L 164.554955 326.215092 
L 166.342342 326.588022 
L 168.12973 326.960951 
L 169.917117 327.333881 
L 171.704505 327.706811 
L 173.491892 328.079741 
L 175.279279 328.45267 
L 177.066667 328.8256 
L 178.854054 329.19853 
L 180.641441 329.571459 
L 182.428829 329.944389 
L 184.216216 330.317319 
L 186.003604 330.690249 
L 187.790991 331.063178 
L 189.578378 331.436108 
L 191.365766 331.809038 
L 193.153153 332.181968 
L 194.940541 332.554897 
L 196.727928 332.927827 
L 198.515315 333.300757 
L 200.302703 333.673686 
L 202.09009 334.046616 
L 203.877477 334.419546 
L 205.664865 334.792476 
L 207.452252 335.165405 
L 209.23964 335.538335 
L 211.027027 335.911265 
L 212.814414 336.284195 
L 214.601802 336.657124 
L 216.389189 337.030054 
L 218.176577 337.402984 
L 219.963964 337.775914 
L 221.751351 338.148843 
L 223.538739 338.521773 
L 225.326126 338.894703 
L 227.113514 339.267632 
L 228.900901 339.640562 
L 230.688288 340.013492 
L 232.475676 340.386422 
L 234.263063 340.759351 
L 236.05045 341.132281 
L 237.837838 341.505211 
L 239.625225 341.878141 
L 241.412613 342.25107 
L 243.2 342.624 
L 244.987387 342.99693 
L 246.774775 343.369859 
L 248.562162 343.742789 
L 250.34955 344.115719 
L 252.136937 344.488649 
L 253.924324 344.861578 
L 255.711712 345.234508 
L 257.499099 345.607438 
L 259.286486 345.980368 
L 261.073874 346.353297 
L 262.861261 346.726227 
L 264.648649 347.099157 
L 266.436036 347.472086 
L 268.223423 347.845016 
L 270.010811 348.217946 
L 271.798198 348.590876 
L 273.585586 348.963805 
L 275.372973 349.336735 
L 277.16036 349.709665 
L 278.947748 350.082595 
L 280.735135 350.455524 
L 282.522523 350.828454 
L 284.30991 351.201384 
L 286.097297 351.574314 
L 287.884685 351.947243 
L 289.672072 352.320173 
L 291.459459 352.693103 
L 293.246847 353.066032 
L 295.034234 353.438962 
L 296.821622 353.811892 
L 298.609009 354.184822 
L 300.396396 354.557751 
L 302.183784 354.930681 
L 303.971171 355.303611 
L 305.758559 355.676541 
L 307.545946 356.04947 
L 309.333333 356.4224 
L 311.120721 356.79533 
L 312.908108 357.168259 
L 314.695495 357.541189 
L 316.482883 357.914119 
L 318.27027 358.287049 
L 320.057658 358.659978 
L 321.845045 359.032908 
L 323.632432 359.405838 
L 325.41982 359.778768 
L 327.207207 360.151697 
L 328.994595 360.524627 
L 330.781982 360.897557 
L 332.569369 361.270486 
L 334.356757 361.643416 
L 336.144144 362.016346 
L 337.931532 362.389276 
L 339.718919 362.762205 
L 341.506306 363.135135 
L 343.293694 363.508065 
L 345.081081 363.880995 
L 346.868468 364.253924 
L 348.655856 364.626854 
L 350.443243 364.999784 
L 352.230631 365.372714 
L 354.018018 365.745643 
L 355.805405 366.118573 
L 357.592793 366.491503 
L 359.38018 366.864432 
L 361.167568 367.237362 
L 362.954955 367.610292 
L 364.742342 367.983222 
L 366.52973 368.356151 
L 368.317117 368.729081 
L 370.104505 369.102011 
L 371.891892 369.474941 
L 373.679279 369.84787 
L 375.466667 370.2208 
L 377.254054 370.59373 
L 379.041441 370.966659 
L 380.828829 371.339589 
L 382.616216 371.712519 
L 384.403604 372.085449 
L 386.190991 372.458378 
L 387.978378 372.831308 
L 389.765766 373.204238 
L 391.553153 373.577168 
L 393.340541 373.950097 
L 395.127928 374.323027 
L 396.915315 374.695957 
L 398.702703 375.068886 
L 400.49009 375.441816 
L 402.277477 375.814746 
L 404.064865 376.187676 
L 405.852252 376.560605 
L 407.63964 376.933535 
L 409.427027 377.306465 
L 411.214414 377.679395 
L 413.001802 378.052324 
L 414.789189 378.425254 
L 416.576577 378.798184 
L 418.363964 379.171114 
L 420.151351 379.544043 
L 421.938739 379.916973 
L 423.726126 380.289903 
L 425.513514 380.662832 
L 427.300901 381.035762 
L 429.088288 381.408692 
L 430.875676 381.781622 
L 432.663063 382.154551 
L 434.45045 382.527481 
L 436.237838 382.900411 
L 438.025225 383.273341 
L 439.812613 383.64627 
L 441.6 384.0192 
L 443.387387 384.39213 
L 445.174775 384.765059 
L 446.962162 385.137989 
L 448.74955 385.510919 
L 450.536937 385.883849 
L 452.324324 386.256778 
L 454.111712 386.629708 
L 455.899099 387.002638 
L 457.686486 387.375568 
L 459.473874 387.748497 
L 461.261261 388.121427 
L 463.048649 388.494357 
L 464.836036 388.867286 
L 466.623423 389.240216 
L 468.410811 389.613146 
L 470.198198 389.986076 
L 471.985586 390.359005 
L 473.772973 390.731935 
L 475.56036 391.104865 
L 477.347748 391.477795 
L 479.135135 391.850724 
L 480.922523 392.223654 
L 482.70991 392.596584 
L 484.497297 392.969514 
L 486.284685 393.342443 
L 488.072072 393.715373 
L 489.859459 394.088303 
L 491.646847 394.461232 
L 493.434234 394.834162 
L 495.221622 395.207092 
L 497.009009 395.580022 
L 498.796396 395.952951 
L 500.583784 396.325881 
L 502.371171 396.698811 
L 504.158559 397.071741 
L 505.945946 397.44467 
L 507.733333 397.8176 
L 509.520721 398.19053 
L 511.308108 398.563459 
L 513.095495 398.936389 
L 514.882883 399.309319 
L 516.67027 399.682249 
L 518.457658 400.055178 
L 520.245045 400.428108 
L 522.032432 400.801038 
L 523.81982 401.173968 
L 525.607207 401.546897 
L 527.394595 401.919827 
L 529.181982 402.292757 
L 530.969369 402.665686 
L 532.756757 403.038616 
L 534.544144 403.411546 
L 536.331532 403.784476 
L 538.118919 404.157405 
L 539.906306 404.530335 
L 541.693694 404.903265 
L 543.481081 405.276195 
L 545.268468 405.649124 
L 547.055856 406.022054 
L 548.843243 406.394984 
L 550.630631 406.767914 
L 552.418018 407.140843 
L 554.205405 407.513773 
L 555.992793 407.886703 
L 557.78018 408.259632 
L 559.567568 408.632562 
L 561.354955 409.005492 
L 563.142342 409.378422 
L 564.92973 409.751351 
L 566.717117 410.124281 
L 568.504505 410.497211 
L 570.291892 410.870141 
L 572.079279 411.24307 
L 573.866667 411.616 
L 575.654054 411.98893 
L 577.441441 412.361859 
L 579.228829 412.734789 
L 581.016216 413.107719 
L 582.803604 413.480649 
L 584.590991 411.626515 
L 586.378378 409.488478 
L 588.165766 407.350441 
L 589.953153 405.212404 
L 591.740541 403.074367 
L 593.527928 400.93633 
L 595.315315 398.798293 
L 597.102703 396.660256 
L 598.89009 394.522219 
L 600.677477 392.384182 
L 602.464865 390.246145 
L 604.252252 388.108108 
L 606.03964 385.970071 
L 607.827027 383.832034 
L 609.614414 381.693997 
L 611.401802 379.55596 
L 613.189189 377.417923 
L 614.976577 375.279886 
L 616.763964 373.141849 
L 618.551351 371.003812 
L 620.338739 368.865775 
L 622.126126 366.727738 
L 623.913514 364.589701 
L 625.700901 362.451664 
L 627.488288 360.313627 
L 629.275676 358.17559 
L 631.063063 356.037553 
L 632.85045 353.899516 
L 634.637838 351.761479 
L 636.425225 349.623442 
L 638.212613 347.485405 
L 640 345.347368 
L 641.787387 343.209331 
L 643.574775 341.071294 
L 645.362162 338.933257 
L 647.14955 336.79522 
L 648.936937 334.657183 
L 650.724324 332.519147 
L 652.511712 330.38111 
L 654.299099 328.243073 
L 656.086486 326.105036 
L 657.873874 323.966999 
L 659.661261 321.828962 
L 661.448649 319.690925 
L 663.236036 317.552888 
L 665.023423 315.414851 
L 666.810811 313.276814 
L 668.598198 311.138777 
L 670.385586 309.00074 
L 672.172973 306.862703 
L 673.96036 304.724666 
L 675.747748 302.586629 
L 677.535135 300.448592 
L 679.322523 298.310555 
L 681.10991 296.172518 
L 682.897297 294.034481 
L 684.684685 291.896444 
L 686.472072 289.758407 
L 688.259459 287.62037 
L 690.046847 285.482333 
L 691.834234 283.344296 
L 693.621622 281.206259 
L 695.409009 279.068222 
L 697.196396 276.930185 
L 698.983784 274.792148 
L 700.771171 272.654111 
L 702.558559 270.516074 
L 704.345946 268.378037 
L 706.133333 266.24 
L 707.920721 264.101963 
L 709.708108 261.963926 
L 711.495495 259.825889 
L 713.282883 257.687852 
L 715.07027 255.549815 
L 716.857658 253.411778 
L 718.645045 251.273741 
L 720.432432 249.135704 
L 722.21982 246.997667 
L 724.007207 244.85963 
L 725.794595 242.721593 
L 727.581982 240.583556 
L 729.369369 238.445519 
L 731.156757 236.307482 
L 732.944144 234.169445 
L 734.731532 232.031408 
L 736.518919 229.893371 
L 738.306306 227.755334 
L 740.093694 225.617297 
L 741.881081 223.47926 
L 743.668468 221.341223 
L 745.455856 219.203186 
L 747.243243 217.065149 
L 749.030631 214.927112 
L 750.818018 212.789075 
L 752.605405 210.651038 
L 754.392793 208.513001 
L 756.18018 206.374964 
L 757.967568 204.236927 
L 759.754955 202.09889 
L 761.542342 199.960853 
L 763.32973 197.822817 
L 765.117117 195.68478 
L 766.904505 193.546743 
L 768.691892 191.408706 
L 770.479279 189.270669 
L 772.266667 187.132632 
L 774.054054 184.994595 
L 775.841441 182.856558 
L 777.628829 180.718521 
L 779.416216 178.580484 
L 781.203604 176.442447 
L 782.990991 174.30441 
L 784.778378 172.166373 
L 786.565766 170.028336 
L 788.353153 167.890299 
L 790.140541 165.752262 
L 791.927928 163.614225 
L 793.715315 161.476188 
L 795.502703 159.338151 
L 797.29009 157.200114 
L 799.077477 155.062077 
L 800.864865 152.92404 
L 802.652252 150.786003 
L 804.43964 148.647966 
L 806.227027 146.509929 
L 808.014414 144.371892 
L 809.801802 142.233855 
L 811.589189 140.095818 
L 813.376577 137.957781 
L 815.163964 135.819744 
L 816.951351 133.681707 
L 818.738739 131.54367 
L 820.526126 129.405633 
L 822.313514 127.267596 
L 824.100901 125.129559 
L 825.888288 122.991522 
L 827.675676 120.853485 
L 829.463063 118.715448 
L 831.25045 116.577411 
L 833.037838 114.439374 
L 834.825225 112.301337 
L 836.612613 110.1633 
L 838.4 108.025263 
L 840.187387 105.887226 
L 841.974775 103.749189 
L 843.762162 101.611152 
L 845.54955 99.473115 
L 847.336937 97.335078 
L 849.124324 95.197041 
L 850.911712 93.059004 
L 852.699099 90.920967 
L 854.486486 88.78293 
L 856.273874 86.644893 
L 858.061261 84.506856 
L 859.848649 82.368819 
L 861.636036 80.230782 
L 863.423423 78.092745 
L 865.210811 75.954708 
L 866.998198 73.816671 
L 868.785586 71.678634 
L 870.572973 69.540597 
L 872.36036 67.40256 
L 874.147748 65.264523 
L 875.935135 63.126486 
L 877.722523 60.98845 
L 879.50991 58.850413 
L 881.297297 56.712376 
L 883.084685 54.574339 
L 884.872072 52.436302 
L 886.659459 50.298265 
L 888.446847 48.160228 
L 890.234234 46.022191 
L 892.021622 43.884154 
L 893.809009 41.746117 
L 895.596396 39.60808 
L 897.383784 37.470043 
L 899.171171 35.332006 
L 900.958559 33.193969 
L 902.745946 31.055932 
L 904.533333 28.917895 
L 906.320721 26.779858 
L 908.108108 24.641821 
L 909.895495 22.503784 
L 911.682883 20.365747 
L 913.47027 18.22771 
L 915.257658 16.089673 
L 917.045045 13.951636 
L 918.832432 11.813599 
L 920.61982 9.675562 
L 922.407207 7.537525 
L 924.194595 5.399488 
L 925.981982 3.261451 
L 927.769369 1.123414 
L 929.556757 -1.014623 
L 931.344144 -3.15266 
L 933.131532 -5.290697 
L 934.918919 -7.428734 
L 936.706306 -9.566771 
L 938.493694 -11.704808 
L 940.281081 -13.842845 
L 942.068468 -15.980882 
L 943.855856 -18.118919 
L 945.643243 -20.256956 
L 947.430631 -22.394993 
L 949.218018 -24.53303 
L 951.005405 -26.671067 
L 952.792793 -28.809104 
L 954.58018 -30.947141 
L 956.367568 -33.085178 
L 958.154955 -35.223215 
L 959.942342 -37.361252 
L 961.72973 -39.499289 
L 963.517117 -41.637326 
L 965.304505 -43.775363 
L 967.091892 -45.9134 
L 968.879279 -48.051437 
L 970.666667 -50.189474 
L 972.454054 -52.327511 
L 974.241441 -54.465548 
L 976.028829 -56.603585 
L 977.816216 -58.741622 
L 979.603604 -60.879659 
L 981.390991 -63.017696 
L 983.178378 -65.155733 
L 984.965766 -67.29377 
L 986.753153 -69.431807 
L 988.540541 -71.569844 
L 990.327928 -73.707881 
L 992.115315 -75.845917 
L 993.902703 -77.983954 
L 995.69009 -80.121991 
L 997.477477 -82.260028 
L 999.264865 -84.398065 
L 1001.052252 -86.536102 
L 1002.83964 -88.674139 
L 1004.627027 -90.812176 
L 1006.414414 -92.950213 
L 1008.201802 -95.08825 
L 1009.989189 -97.226287 
L 1011.776577 -99.364324 
L 1013.563964 -101.502361 
L 1015.351351 -103.640398 
L 1017.138739 -105.778435 
L 1018.926126 -107.916472 
L 1020.713514 -110.054509 
L 1022.500901 -112.192546 
L 1024.288288 -114.330583 
L 1026.075676 -116.46862 
L 1027.863063 -118.606657 
L 1029.65045 -120.744694 
L 1031.437838 -122.882731 
L 1033.225225 -125.020768 
L 1035.012613 -127.158805 
L 1036.8 -129.296842 
L 1036.8 -129.296842 
L 1036.8 -129.296842 
L 1035.012613 -127.158805 
L 1033.225225 -125.020768 
L 1031.437838 -122.882731 
L 1029.65045 -120.744694 
L 1027.863063 -118.606657 
L 1026.075676 -116.46862 
L 1024.288288 -114.330583 
L 1022.500901 -112.192546 
L 1020.713514 -110.054509 
L 1018.926126 -107.916472 
L 1017.138739 -105.778435 
L 1015.351351 -103.640398 
L 1013.563964 -101.502361 
L 1011.776577 -99.364324 
L 1009.989189 -97.226287 
L 1008.201802 -95.08825 
L 1006.414414 -92.950213 
L 1004.627027 -90.812176 
L 1002.83964 -88.674139 
L 1001.052252 -86.536102 
L 999.264865 -84.398065 
L 997.477477 -82.260028 
L 995.69009 -80.121991 
L 993.902703 -77.983954 
L 992.115315 -75.845917 
L 990.327928 -73.707881 
L 988.540541 -71.569844 
L 986.753153 -69.431807 
L 984.965766 -67.29377 
L 983.178378 -65.155733 
L 981.390991 -63.017696 
L 979.603604 -60.879659 
L 977.816216 -58.741622 
L 976.028829 -56.603585 
L 974.241441 -54.465548 
L 972.454054 -52.327511 
L 970.666667 -50.189474 
L 968.879279 -48.051437 
L 967.091892 -45.9134 
L 965.304505 -43.775363 
L 963.517117 -41.637326 
L 961.72973 -39.499289 
L 959.942342 -37.361252 
L 958.154955 -35.223215 
L 956.367568 -33.085178 
L 954.58018 -30.947141 
L 952.792793 -28.809104 
L 951.005405 -26.671067 
L 949.218018 -24.53303 
L 947.430631 -22.394993 
L 945.643243 -20.256956 
L 943.855856 -18.118919 
L 942.068468 -15.980882 
L 940.281081 -13.842845 
L 938.493694 -11.704808 
L 936.706306 -9.566771 
L 934.918919 -7.428734 
L 933.131532 -5.290697 
L 931.344144 -3.15266 
L 929.556757 -1.014623 
L 927.769369 1.123414 
L 925.981982 3.261451 
L 924.194595 5.399488 
L 922.407207 7.537525 
L 920.61982 9.675562 
L 918.832432 11.813599 
L 917.045045 13.951636 
L 915.257658 16.089673 
L 913.47027 18.22771 
L 911.682883 20.365747 
L 909.895495 22.503784 
L 908.108108 24.641821 
L 906.320721 26.779858 
L 904.533333 28.917895 
L 902.745946 31.055932 
L 900.958559 33.193969 
L 899.171171 35.332006 
L 897.383784 37.470043 
L 895.596396 39.60808 
L 893.809009 41.746117 
L 892.021622 43.884154 
L 890.234234 46.022191 
L 888.446847 48.160228 
L 886.659459 50.298265 
L 884.872072 52.436302 
L 883.084685 54.574339 
L 881.297297 56.712376 
L 879.50991 58.850413 
L 877.722523 60.98845 
L 875.935135 63.126486 
L 874.147748 65.264523 
L 872.36036 67.40256 
L 870.572973 69.540597 
L 868.785586 71.678634 
L 866.998198 73.816671 
L 865.210811 75.954708 
L 863.423423 78.092745 
L 861.636036 80.230782 
L 859.848649 82.368819 
L 858.061261 84.506856 
L 856.273874 86.644893 
L 854.486486 88.78293 
L 852.699099 90.920967 
L 850.911712 93.059004 
L 849.124324 95.197041 
L 847.336937 97.335078 
L 845.54955 99.473115 
L 843.762162 101.611152 
L 841.974775 103.749189 
L 840.187387 105.887226 
L 838.4 108.025263 
L 836.612613 110.1633 
L 834.825225 112.301337 
L 833.037838 114.439374 
L 831.25045 116.577411 
L 829.463063 118.715448 
L 827.675676 120.853485 
L 825.888288 122.991522 
L 824.100901 125.129559 
L 822.313514 127.267596 
L 820.526126 129.405633 
L 818.738739 131.54367 
L 816.951351 133.681707 
L 815.163964 135.819744 
L 813.376577 137.957781 
L 811.589189 140.095818 
L 809.801802 142.233855 
L 808.014414 144.371892 
L 806.227027 146.509929 
L 804.43964 148.647966 
L 802.652252 150.786003 
L 800.864865 152.92404 
L 799.077477 155.062077 
L 797.29009 157.200114 
L 795.502703 159.338151 
L 793.715315 161.476188 
L 791.927928 163.614225 
L 790.140541 165.752262 
L 788.353153 167.890299 
L 786.565766 170.028336 
L 784.778378 172.166373 
L 782.990991 174.30441 
L 781.203604 176.442447 
L 779.416216 178.580484 
L 777.628829 180.718521 
L 775.841441 181.676125 
L 774.054054 182.325985 
L 772.266667 182.975845 
L 770.479279 183.625706 
L 768.691892 184.275566 
L 766.904505 184.925426 
L 765.117117 185.575287 
L 763.32973 186.225147 
L 761.542342 186.875007 
L 759.754955 187.524867 
L 757.967568 188.174728 
L 756.18018 188.824588 
L 754.392793 189.474448 
L 752.605405 190.124309 
L 750.818018 190.774169 
L 749.030631 191.424029 
L 747.243243 192.07389 
L 745.455856 192.72375 
L 743.668468 193.37361 
L 741.881081 194.02347 
L 740.093694 194.673331 
L 738.306306 195.323191 
L 736.518919 195.973051 
L 734.731532 196.622912 
L 732.944144 197.272772 
L 731.156757 197.922632 
L 729.369369 198.572492 
L 727.581982 199.222353 
L 725.794595 199.872213 
L 724.007207 200.522073 
L 722.21982 201.171934 
L 720.432432 201.821794 
L 718.645045 202.471654 
L 716.857658 203.121515 
L 715.07027 203.771375 
L 713.282883 204.421235 
L 711.495495 205.071095 
L 709.708108 205.720956 
L 707.920721 206.370816 
L 706.133333 207.020676 
L 704.345946 207.670537 
L 702.558559 208.320397 
L 700.771171 208.970257 
L 698.983784 209.620118 
L 697.196396 210.269978 
L 695.409009 210.919838 
L 693.621622 211.569698 
L 691.834234 212.219559 
L 690.046847 212.869419 
L 688.259459 213.519279 
L 686.472072 214.16914 
L 684.684685 214.819 
L 682.897297 215.46886 
L 681.10991 216.11872 
L 679.322523 216.768581 
L 677.535135 217.418441 
L 675.747748 218.068301 
L 673.96036 218.718162 
L 672.172973 219.368022 
L 670.385586 220.017882 
L 668.598198 220.667743 
L 666.810811 221.317603 
L 665.023423 221.967463 
L 663.236036 222.617323 
L 661.448649 223.267184 
L 659.661261 223.917044 
L 657.873874 224.566904 
L 656.086486 225.216765 
L 654.299099 225.866625 
L 652.511712 226.516485 
L 650.724324 227.166345 
L 648.936937 227.816206 
L 647.14955 228.466066 
L 645.362162 229.115926 
L 643.574775 229.765787 
L 641.787387 230.415647 
L 640 231.065507 
L 638.212613 231.715368 
L 636.425225 232.365228 
L 634.637838 233.015088 
L 632.85045 233.664948 
L 631.063063 234.314809 
L 629.275676 234.964669 
L 627.488288 235.614529 
L 625.700901 236.26439 
L 623.913514 236.91425 
L 622.126126 237.56411 
L 620.338739 238.21397 
L 618.551351 238.863831 
L 616.763964 239.513691 
L 614.976577 240.163551 
L 613.189189 240.813412 
L 611.401802 241.463272 
L 609.614414 242.113132 
L 607.827027 242.762993 
L 606.03964 243.412853 
L 604.252252 244.062713 
L 602.464865 244.712573 
L 600.677477 245.362434 
L 598.89009 246.012294 
L 597.102703 246.662154 
L 595.315315 247.312015 
L 593.527928 247.961875 
L 591.740541 248.611735 
L 589.953153 249.261596 
L 588.165766 249.911456 
L 586.378378 250.561316 
L 584.590991 251.211176 
L 582.803604 251.861037 
L 581.016216 252.510897 
L 579.228829 253.160757 
L 577.441441 253.810618 
L 575.654054 254.460478 
L 573.866667 255.110338 
L 572.079279 255.760198 
L 570.291892 256.410059 
L 568.504505 257.059919 
L 566.717117 257.709779 
L 564.92973 258.35964 
L 563.142342 259.0095 
L 561.354955 259.65936 
L 559.567568 260.309221 
L 557.78018 260.959081 
L 555.992793 261.608941 
L 554.205405 262.258801 
L 552.418018 262.908662 
L 550.630631 263.558522 
L 548.843243 264.208382 
L 547.055856 264.858243 
L 545.268468 265.508103 
L 543.481081 266.157963 
L 541.693694 266.807823 
L 539.906306 267.457684 
L 538.118919 268.107544 
L 536.331532 268.757404 
L 534.544144 269.407265 
L 532.756757 270.057125 
L 530.969369 270.706985 
L 529.181982 271.356846 
L 527.394595 272.006706 
L 525.607207 272.656566 
L 523.81982 273.306426 
L 522.032432 273.956287 
L 520.245045 274.606147 
L 518.457658 275.256007 
L 516.67027 275.905868 
L 514.882883 276.555728 
L 513.095495 277.205588 
L 511.308108 277.855448 
L 509.520721 278.505309 
L 507.733333 279.155169 
L 505.945946 279.805029 
L 504.158559 280.45489 
L 502.371171 281.10475 
L 500.583784 281.75461 
L 498.796396 282.404471 
L 497.009009 283.054331 
L 495.221622 283.704191 
L 493.434234 284.354051 
L 491.646847 285.003912 
L 489.859459 285.653772 
L 488.072072 286.303632 
L 486.284685 286.953493 
L 484.497297 287.603353 
L 482.70991 288.253213 
L 480.922523 288.903074 
L 479.135135 289.552934 
L 477.347748 290.202794 
L 475.56036 290.852654 
L 473.772973 291.502515 
L 471.985586 292.152375 
L 470.198198 292.802235 
L 468.410811 293.452096 
L 466.623423 294.101956 
L 464.836036 294.751816 
L 463.048649 295.401676 
L 461.261261 296.051537 
L 459.473874 296.701397 
L 457.686486 297.351257 
L 455.899099 298.001118 
L 454.111712 298.650978 
L 452.324324 299.300838 
L 450.536937 299.950699 
L 448.74955 300.600559 
L 446.962162 301.250419 
L 445.174775 301.900279 
L 443.387387 302.55014 
L 441.6 303.2 
L 439.812613 303.84986 
L 438.025225 304.499721 
L 436.237838 305.149581 
L 434.45045 305.799441 
L 432.663063 306.449301 
L 430.875676 307.099162 
L 429.088288 307.749022 
L 427.300901 308.398882 
L 425.513514 309.048743 
L 423.726126 309.698603 
L 421.938739 310.348463 
L 420.151351 310.998324 
L 418.363964 311.648184 
L 416.576577 312.298044 
L 414.789189 312.947904 
L 413.001802 313.597765 
L 411.214414 314.247625 
L 409.427027 314.897485 
L 407.63964 315.547346 
L 405.852252 316.197206 
L 404.064865 316.847066 
L 402.277477 317.496926 
L 400.49009 318.146787 
L 398.702703 318.796647 
L 396.915315 319.446507 
L 395.127928 320.096368 
L 393.340541 320.746228 
L 391.553153 321.396088 
L 389.765766 322.045949 
L 387.978378 322.695809 
L 386.190991 323.345669 
L 384.403604 323.995529 
L 382.616216 324.64539 
L 380.828829 325.29525 
L 379.041441 325.94511 
L 377.254054 326.594971 
L 375.466667 327.244831 
L 373.679279 327.894691 
L 371.891892 328.544552 
L 370.104505 329.194412 
L 368.317117 329.844272 
L 366.52973 330.494132 
L 364.742342 331.143993 
L 362.954955 331.793853 
L 361.167568 332.443713 
L 359.38018 333.093574 
L 357.592793 333.743434 
L 355.805405 334.393294 
L 354.018018 335.043154 
L 352.230631 335.693015 
L 350.443243 336.342875 
L 348.655856 336.992735 
L 346.868468 337.642596 
L 345.081081 338.292456 
L 343.293694 338.942316 
L 341.506306 339.592177 
L 339.718919 340.242037 
L 337.931532 340.891897 
L 336.144144 341.541757 
L 334.356757 342.191618 
L 332.569369 342.841478 
L 330.781982 343.491338 
L 328.994595 344.141199 
L 327.207207 344.791059 
L 325.41982 345.440919 
L 323.632432 346.090779 
L 321.845045 346.74064 
L 320.057658 347.3905 
L 318.27027 348.04036 
L 316.482883 348.690221 
L 314.695495 349.340081 
L 312.908108 349.989941 
L 311.120721 350.639802 
L 309.333333 351.289662 
L 307.545946 351.939522 
L 305.758559 352.589382 
L 303.971171 353.239243 
L 302.183784 353.889103 
L 300.396396 354.538963 
L 298.609009 354.184822 
L 296.821622 353.811892 
L 295.034234 353.438962 
L 293.246847 353.066032 
L 291.459459 352.693103 
L 289.672072 352.320173 
L 287.884685 351.947243 
L 286.097297 351.574314 
L 284.30991 351.201384 
L 282.522523 350.828454 
L 280.735135 350.455524 
L 278.947748 350.082595 
L 277.16036 349.709665 
L 275.372973 349.336735 
L 273.585586 348.963805 
L 271.798198 348.590876 
L 270.010811 348.217946 
L 268.223423 347.845016 
L 266.436036 347.472086 
L 264.648649 347.099157 
L 262.861261 346.726227 
L 261.073874 346.353297 
L 259.286486 345.980368 
L 257.499099 345.607438 
L 255.711712 345.234508 
L 253.924324 344.861578 
L 252.136937 344.488649 
L 250.34955 344.115719 
L 248.562162 343.742789 
L 246.774775 343.369859 
L 244.987387 342.99693 
L 243.2 342.624 
L 241.412613 342.25107 
L 239.625225 341.878141 
L 237.837838 341.505211 
L 236.05045 341.132281 
L 234.263063 340.759351 
L 232.475676 340.386422 
L 230.688288 340.013492 
L 228.900901 339.640562 
L 227.113514 339.267632 
L 225.326126 338.894703 
L 223.538739 338.521773 
L 221.751351 338.148843 
L 219.963964 337.775914 
L 218.176577 337.402984 
L 216.389189 337.030054 
L 214.601802 336.657124 
L 212.814414 336.284195 
L 211.027027 335.911265 
L 209.23964 335.538335 
L 207.452252 335.165405 
L 205.664865 334.792476 
L 203.877477 334.419546 
L 202.09009 334.046616 
L 200.302703 333.673686 
L 198.515315 333.300757 
L 196.727928 332.927827 
L 194.940541 332.554897 
L 193.153153 332.181968 
L 191.365766 331.809038 
L 189.578378 331.436108 
L 187.790991 331.063178 
L 186.003604 330.690249 
L 184.216216 330.317319 
L 182.428829 329.944389 
L 180.641441 329.571459 
L 178.854054 329.19853 
L 177.066667 328.8256 
L 175.279279 328.45267 
L 173.491892 328.079741 
L 171.704505 327.706811 
L 169.917117 327.333881 
L 168.12973 326.960951 
L 166.342342 326.588022 
L 164.554955 326.215092 
L 162.767568 325.842162 
L 160.98018 325.469232 
L 159.192793 325.096303 
L 157.405405 324.723373 
L 155.618018 324.350443 
L 153.830631 323.977514 
L 152.043243 323.604584 
L 150.255856 323.231654 
L 148.468468 322.858724 
L 146.681081 322.485795 
L 144.893694 322.112865 
L 143.106306 321.739935 
L 141.318919 321.367005 
L 139.531532 320.994076 
L 137.744144 320.621146 
L 135.956757 320.248216 
L 134.169369 319.875286 
L 132.381982 319.502357 
L 130.594595 319.129427 
L 128.807207 318.756497 
L 127.01982 318.383568 
L 125.232432 318.010638 
L 123.445045 317.637708 
L 121.657658 317.264778 
L 119.87027 316.891849 
L 118.082883 316.518919 
L 116.295495 316.145989 
L 114.508108 315.773059 
L 112.720721 315.40013 
L 110.933333 315.0272 
L 109.145946 314.65427 
L 107.358559 314.281341 
L 105.571171 313.908411 
L 103.783784 313.535481 
L 101.996396 313.162551 
L 100.209009 312.789622 
L 98.421622 312.416692 
L 96.634234 312.043762 
L 94.846847 311.670832 
L 93.059459 311.297903 
L 91.272072 310.924973 
L 89.484685 310.552043 
L 87.697297 310.179114 
L 85.90991 309.806184 
L 84.122523 309.433254 
L 82.335135 309.060324 
L 80.547748 308.687395 
L 78.76036 308.314465 
L 76.972973 307.941535 
L 75.185586 307.568605 
L 73.398198 307.195676 
L 71.610811 306.822746 
L 69.823423 306.449816 
L 68.036036 306.076886 
L 66.248649 305.703957 
L 64.461261 305.331027 
L 62.673874 304.958097 
L 60.886486 304.585168 
L 59.099099 304.212238 
L 57.311712 303.839308 
L 55.524324 303.466378 
L 53.736937 303.093449 
L 51.94955 302.720519 
L 50.162162 302.347589 
L 48.374775 301.974659 
L 46.587387 301.60173 
L 44.8 301.2288 
L 43.012613 300.85587 
L 41.225225 300.482941 
L 39.437838 300.110011 
L 37.65045 299.737081 
L 35.863063 299.364151 
L 34.075676 298.991222 
L 32.288288 298.618292 
L 30.500901 298.245362 
L 28.713514 297.872432 
L 26.926126 297.499503 
L 25.138739 297.126573 
L 23.351351 296.753643 
L 21.563964 296.380714 
L 19.776577 296.007784 
L 17.989189 295.634854 
L 16.201802 295.261924 
L 14.414414 294.888995 
L 12.627027 294.516065 
L 10.83964 294.143135 
L 9.052252 293.770205 
L 7.264865 293.397276 
L 5.477477 293.024346 
L 3.69009 292.651416 
L 1.902703 292.278486 
L 0.115315 291.905557 
L -1.672072 291.532627 
L -3.459459 291.159697 
L -5.246847 290.786768 
L -7.034234 290.413838 
L -8.821622 290.040908 
L -10.609009 289.667978 
L -12.396396 289.295049 
L -14.183784 288.922119 
L -15.971171 288.549189 
L -17.758559 288.176259 
L -19.545946 287.80333 
L -21.333333 287.4304 
L -23.120721 287.05747 
L -24.908108 286.684541 
L -26.695495 286.311611 
L -28.482883 285.938681 
L -30.27027 285.565751 
L -32.057658 285.192822 
L -33.845045 284.819892 
L -35.632432 284.446962 
L -37.41982 284.074032 
L -39.207207 283.701103 
L -40.994595 283.328173 
L -42.781982 282.955243 
L -44.569369 282.582314 
L -46.356757 282.209384 
L -48.144144 281.836454 
L -49.931532 281.463524 
L -51.718919 281.090595 
L -53.506306 280.717665 
L -55.293694 280.344735 
L -57.081081 279.971805 
L -58.868468 279.598876 
L -60.655856 279.225946 
L -62.443243 278.853016 
L -64.230631 278.480086 
L -66.018018 278.107157 
L -67.805405 277.734227 
L -69.592793 277.361297 
L -71.38018 276.988368 
L -73.167568 276.615438 
L -74.954955 276.242508 
L -76.742342 275.869578 
L -78.52973 275.496649 
L -80.317117 275.123719 
L -82.104505 274.750789 
L -83.891892 274.377859 
L -85.679279 274.00493 
L -87.466667 273.632 
L -89.254054 273.25907 
L -91.041441 272.886141 
L -92.828829 272.513211 
L -94.616216 272.140281 
L -96.403604 271.767351 
L -98.190991 271.394422 
L -99.978378 271.021492 
L -101.765766 270.648562 
L -103.553153 270.275632 
L -105.340541 269.902703 
L -107.127928 269.529773 
L -108.915315 269.156843 
L -110.702703 268.783914 
L -112.49009 268.410984 
L -114.277477 268.038054 
L -116.064865 267.665124 
L -117.852252 267.292195 
L -119.63964 266.919265 
L -121.427027 266.546335 
L -123.214414 266.173405 
L -125.001802 265.800476 
L -126.789189 265.427546 
L -128.576577 265.054616 
L -130.363964 264.681686 
L -132.151351 264.308757 
L -133.938739 263.935827 
L -135.726126 263.562897 
L -137.513514 263.189968 
L -139.300901 262.817038 
L -141.088288 262.444108 
L -142.875676 262.071178 
L -144.663063 261.698249 
L -146.45045 261.325319 
L -148.237838 260.952389 
L -150.025225 260.579459 
L -151.812613 260.20653 
L -153.6 259.8336 
L -155.387387 259.46067 
L -157.174775 259.087741 
L -158.962162 258.714811 
L -160.74955 258.341881 
L -162.536937 257.968951 
L -164.324324 257.596022 
L -166.111712 257.223092 
L -167.899099 256.850162 
L -169.686486 256.477232 
L -171.473874 256.104303 
L -173.261261 255.731373 
L -175.048649 255.358443 
L -176.836036 254.985514 
L -178.623423 254.612584 
L -180.410811 254.239654 
L -182.198198 253.866724 
L -183.985586 253.493795 
L -185.772973 253.120865 
L -187.56036 252.747935 
L -189.347748 252.375005 
L -191.135135 252.002076 
L -192.922523 251.629146 
L -194.70991 251.256216 
L -196.497297 250.883286 
L -198.284685 250.510357 
L -200.072072 250.137427 
L -201.859459 249.764497 
L -203.646847 249.391568 
L -205.434234 249.018638 
L -207.221622 248.645708 
L -209.009009 248.272778 
L -210.796396 247.899849 
L -212.583784 247.526919 
L -214.371171 247.153989 
L -216.158559 246.781059 
L -217.945946 246.40813 
L -219.733333 246.0352 
L -221.520721 245.66227 
L -223.308108 245.289341 
L -225.095495 244.916411 
L -226.882883 244.543481 
L -228.67027 244.170551 
L -230.457658 243.797622 
L -232.245045 243.424692 
L -234.032432 243.051762 
L -235.81982 242.678832 
L -237.607207 242.305903 
L -239.394595 241.932973 
L -241.181982 241.560043 
L -242.969369 241.187114 
L -244.756757 240.814184 
L -246.544144 240.441254 
L -248.331532 240.068324 
L -250.118919 239.695395 
L -251.906306 239.322465 
L -253.693694 238.949535 
L -255.481081 238.576605 
L -257.268468 238.203676 
L -259.055856 237.830746 
L -260.843243 237.457816 
L -262.630631 237.084886 
L -264.418018 236.711957 
L -266.205405 236.339027 
L -267.992793 235.966097 
L -269.78018 235.593168 
L -271.567568 235.220238 
L -273.354955 234.847308 
L -275.142342 234.474378 
L -276.92973 234.101449 
L -278.717117 233.728519 
L -280.504505 233.355589 
L -282.291892 232.982659 
L -284.079279 232.60973 
L -285.866667 232.2368 
L -287.654054 231.86387 
L -289.441441 231.490941 
L -291.228829 231.118011 
L -293.016216 230.745081 
L -294.803604 230.372151 
L -296.590991 229.999222 
L -298.378378 229.626292 
L -300.165766 229.253362 
L -301.953153 228.880432 
L -303.740541 228.507503 
L -305.527928 228.134573 
L -307.315315 227.761643 
L -309.102703 227.388714 
L -310.89009 227.015784 
L -312.677477 226.642854 
L -314.464865 226.269924 
L -316.252252 225.896995 
L -318.03964 225.524065 
L -319.827027 225.151135 
L -321.614414 224.778205 
L -323.401802 224.405276 
L -325.189189 224.032346 
L -326.976577 223.659416 
L -328.763964 223.286486 
L -330.551351 222.913557 
L -332.338739 222.540627 
L -334.126126 222.167697 
L -335.913514 221.794768 
L -337.700901 221.421838 
L -339.488288 221.048908 
L -341.275676 220.675978 
L -343.063063 220.303049 
L -344.85045 219.930119 
L -346.637838 219.557189 
L -348.425225 219.184259 
L -350.212613 218.81133 
L -352 218.4384 
L -353.787387 218.06547 
L -355.574775 217.692541 
L -357.362162 217.319611 
L -359.14955 216.946681 
L -360.936937 216.573751 
L -362.724324 216.200822 
L -364.511712 215.827892 
L -366.299099 215.454962 
L -368.086486 215.082032 
L -369.873874 214.709103 
L -371.661261 214.336173 
L -373.448649 213.963243 
L -375.236036 213.590314 
L -377.023423 213.217384 
L -378.810811 212.844454 
L -380.598198 212.471524 
L -382.385586 212.098595 
L -384.172973 211.725665 
L -385.96036 211.352735 
L -387.747748 210.979805 
L -389.535135 210.606876 
L -391.322523 210.233946 
L -393.10991 209.861016 
L -394.897297 209.488086 
L -396.684685 209.115157 
L -398.472072 208.742227 
L -400.259459 208.369297 
L -402.046847 207.996368 
L -403.834234 207.623438 
L -405.621622 207.250508 
L -407.409009 206.877578 
L -409.196396 206.504649 
L -410.983784 206.131719 
L -412.771171 205.758789 
L -414.558559 205.385859 
L -416.345946 205.01293 
L -418.133333 204.64 
L -419.920721 204.26707 
L -421.708108 203.894141 
L -423.495495 203.521211 
L -425.282883 203.148281 
L -427.07027 202.775351 
L -428.857658 202.402422 
L -430.645045 202.029492 
L -432.432432 201.656562 
L -434.21982 201.283632 
L -436.007207 200.910703 
L -437.794595 200.537773 
L -439.581982 200.164843 
L -441.369369 199.791914 
L -443.156757 199.418984 
L -444.944144 199.046054 
L -446.731532 198.673124 
L -448.518919 198.300195 
L -450.306306 197.927265 
L -452.093694 197.554335 
L -453.881081 197.181405 
L -455.668468 196.808476 
L -457.455856 196.435546 
L -459.243243 196.062616 
L -461.030631 195.689686 
L -462.818018 195.316757 
L -464.605405 194.943827 
L -466.392793 194.570897 
L -468.18018 194.197968 
L -469.967568 193.825038 
L -471.754955 193.452108 
L -473.542342 193.079178 
L -475.32973 192.706249 
L -477.117117 192.333319 
L -478.904505 191.960389 
L -480.691892 191.587459 
L -482.479279 191.21453 
L -484.266667 190.8416 
L -486.054054 190.46867 
L -487.841441 190.095741 
L -489.628829 189.722811 
L -491.416216 189.349881 
L -493.203604 188.976951 
L -494.990991 188.604022 
L -496.778378 188.231092 
L -498.565766 187.858162 
L -500.353153 187.485232 
L -502.140541 187.112303 
L -503.927928 186.739373 
L -505.715315 186.366443 
L -507.502703 185.993514 
L -509.29009 185.620584 
L -511.077477 185.247654 
L -512.864865 184.874724 
L -514.652252 184.501795 
L -516.43964 184.128865 
L -518.227027 183.755935 
L -520.014414 183.383005 
L -521.801802 183.010076 
L -523.589189 182.637146 
L -525.376577 182.264216 
L -527.163964 181.891286 
L -528.951351 181.518357 
L -530.738739 181.145427 
L -532.526126 180.772497 
L -534.313514 180.399568 
L -536.100901 180.026638 
L -537.888288 179.653708 
L -539.675676 179.280778 
L -541.463063 178.907849 
L -543.25045 178.534919 
L -545.037838 178.161989 
L -546.825225 177.789059 
L -548.612613 177.41613 
L -550.4 177.0432 
L -552.187387 176.67027 
L -553.974775 176.297341 
L -555.762162 175.924411 
L -557.54955 175.551481 
L -559.336937 175.178551 
L -561.124324 174.805622 
L -562.911712 174.432692 
L -564.699099 174.059762 
L -566.486486 173.686832 
L -568.273874 173.313903 
L -570.061261 172.940973 
L -571.848649 172.568043 
L -573.636036 172.195114 
L -575.423423 171.822184 
L -577.210811 171.449254 
L -578.998198 171.076324 
L -580.785586 170.703395 
L -582.572973 170.330465 
L -584.36036 169.957535 
L -586.147748 169.584605 
L -587.935135 169.211676 
L -589.722523 168.838746 
L -591.50991 168.465816 
L -593.297297 168.092886 
L -595.084685 167.719957 
L -596.872072 167.347027 
L -598.659459 166.974097 
L -600.446847 166.601168 
L -602.234234 166.228238 
L -604.021622 165.855308 
L -605.809009 165.482378 
L -607.596396 165.109449 
L -609.383784 164.736519 
L -611.171171 164.363589 
L -612.958559 163.990659 
L -614.745946 163.61773 
L -616.533333 163.2448 
L -618.320721 162.87187 
L -620.108108 162.498941 
L -621.895495 162.126011 
L -623.682883 161.753081 
L -625.47027 161.380151 
L -627.257658 161.007222 
L -629.045045 160.634292 
L -630.832432 160.261362 
L -632.61982 159.888432 
L -634.407207 159.515503 
L -636.194595 159.142573 
L -637.981982 158.769643 
L -639.769369 158.396714 
L -641.556757 158.023784 
L -643.344144 157.650854 
L -645.131532 157.277924 
L -646.918919 156.904995 
L -648.706306 156.532065 
L -650.493694 156.159135 
L -652.281081 155.786205 
L -654.068468 155.413276 
L -655.855856 155.040346 
L -657.643243 154.667416 
L -659.430631 154.294486 
L -661.218018 153.921557 
L -663.005405 153.548627 
L -664.792793 153.175697 
L -666.58018 152.802768 
L -668.367568 152.429838 
L -670.154955 152.056908 
L -671.942342 151.683978 
L -673.72973 151.311049 
L -675.517117 150.938119 
L -677.304505 150.565189 
L -679.091892 150.192259 
L -680.879279 149.81933 
L -682.666667 149.4464 
L -684.454054 149.07347 
L -686.241441 148.700541 
L -688.028829 148.327611 
L -689.816216 147.954681 
L -691.603604 147.581751 
L -693.390991 147.208822 
L -695.178378 146.835892 
L -696.965766 146.462962 
L -698.753153 146.090032 
L -700.540541 145.717103 
L -702.327928 145.344173 
L -704.115315 144.971243 
L -705.902703 144.598314 
L -707.69009 144.225384 
L -709.477477 143.852454 
L -711.264865 143.479524 
L -713.052252 143.106595 
L -714.83964 142.733665 
L -716.627027 142.360735 
L -718.414414 141.987805 
L -720.201802 141.614876 
L -721.989189 141.241946 
L -723.776577 140.869016 
L -725.563964 140.496086 
L -727.351351 140.123157 
L -729.138739 139.750227 
L -730.926126 139.377297 
L -732.713514 139.004368 
L -734.500901 138.631438 
L -736.288288 138.258508 
L -738.075676 137.885578 
L -739.863063 137.512649 
L -741.65045 137.139719 
L -743.437838 136.766789 
L -745.225225 136.393859 
L -747.012613 136.02093 
L -748.8 135.648 
z
" clip-path="url(#p715267ed6c)" style="fill: #808080; fill-opacity: 0.5; stroke: #808080; stroke-opacity: 0.5"/>
   </g>
   <g id="matplotlib.axis_1">
    <g id="xtick_1">
     <g id="line2d_1">
      <path d="M 144 512.64 
L 144 69.12 
" clip-path="url(#p715267ed6c)" style="fill: none; stroke-dasharray: 5.12,1.28,0.8,1.28; stroke-dashoffset: 0; stroke: #008000; stroke-width: 0.8"/>
     </g>
     <g id="line2d_2">
      <defs>
       <path id="m5af236138b" d="M 0 0 
L 0 3.5 
" style="stroke: #000000; stroke-width: 0.8"/>
      </defs>
      <g>
       <use xlink:href="#m5af236138b" x="144" y="512.64" style="stroke: #000000; stroke-width: 0.8"/>
      </g>
     </g>
     <g id="text_1">
      <!-- 0.0 -->
      <g transform="translate(136.048438 527.238438)scale(0.1 -0.1)">
       <defs>
        <path id="DejaVuSans-30" d="M 2034 4250 
Q 1547 4250 1301 3770 
Q 1056 3291 1056 2328 
Q 1056 1369 1301 889 
Q 1547 409 2034 409 
Q 2525 409 2770 889 
Q 3016 1369 3016 2328 
Q 3016 3291 2770 3770 
Q 2525 4250 2034 4250 
z
M 2034 4750 
Q 2819 4750 3233 4129 
Q 3647 3509 3647 2328 
Q 3647 1150 3233 529 
Q 2819 -91 2034 -91 
Q 1250 -91 836 529 
Q 422 1150 422 2328 
Q 422 3509 836 4129 
Q 1250 4750 2034 4750 
z
" transform="scale(0.015625)"/>
        <path id="DejaVuSans-2e" d="M 684 794 
L 1344 794 
L 1344 0 
L 684 0 
L 684 794 
z
" transform="scale(0.015625)"/>
       </defs>
       <use xlink:href="#DejaVuSans-30"/>
       <use xlink:href="#DejaVuSans-2e" x="63.623047"/>
       <use xlink:href="#DejaVuSans-30" x="95.410156"/>
      </g>
     </g>
    </g>
    <g id="xtick_2">
     <g id="line2d_3">
      <path d="M 255.6 512.64 
L 255.6 69.12 
" clip-path="url(#p715267ed6c)" style="fill: none; stroke-dasharray: 5.12,1.28,0.8,1.28; stroke-dashoffset: 0; stroke: #008000; stroke-width: 0.8"/>
     </g>
     <g id="line2d_4">
      <g>
       <use xlink:href="#m5af236138b" x="255.6" y="512.64" style="stroke: #000000; stroke-width: 0.8"/>
      </g>
     </g>
     <g id="text_2">
      <!-- 2.5 -->
      <g transform="translate(247.648438 527.238438)scale(0.1 -0.1)">
       <defs>
        <path id="DejaVuSans-32" d="M 1228 531 
L 3431 531 
L 3431 0 
L 469 0 
L 469 531 
Q 828 903 1448 1529 
Q 2069 2156 2228 2338 
Q 2531 2678 2651 2914 
Q 2772 3150 2772 3378 
Q 2772 3750 2511 3984 
Q 2250 4219 1831 4219 
Q 1534 4219 1204 4116 
Q 875 4013 500 3803 
L 500 4441 
Q 881 4594 1212 4672 
Q 1544 4750 1819 4750 
Q 2544 4750 2975 4387 
Q 3406 4025 3406 3419 
Q 3406 3131 3298 2873 
Q 3191 2616 2906 2266 
Q 2828 2175 2409 1742 
Q 1991 1309 1228 531 
z
" transform="scale(0.015625)"/>
        <path id="DejaVuSans-35" d="M 691 4666 
L 3169 4666 
L 3169 4134 
L 1269 4134 
L 1269 2991 
Q 1406 3038 1543 3061 
Q 1681 3084 1819 3084 
Q 2600 3084 3056 2656 
Q 3513 2228 3513 1497 
Q 3513 744 3044 326 
Q 2575 -91 1722 -91 
Q 1428 -91 1123 -41 
Q 819 9 494 109 
L 494 744 
Q 775 591 1075 516 
Q 1375 441 1709 441 
Q 2250 441 2565 725 
Q 2881 1009 2881 1497 
Q 2881 1984 2565 2268 
Q 2250 2553 1709 2553 
Q 1456 2553 1204 2497 
Q 953 2441 691 2322 
L 691 4666 
z
" transform="scale(0.015625)"/>
       </defs>
       <use xlink:href="#DejaVuSans-32"/>
       <use xlink:href="#DejaVuSans-2e" x="63.623047"/>
       <use xlink:href="#DejaVuSans-35" x="95.410156"/>
      </g>
     </g>
    </g>
    <g id="xtick_3">
     <g id="line2d_5">
      <path d="M 367.2 512.64 
L 367.2 69.12 
" clip-path="url(#p715267ed6c)" style="fill: none; stroke-dasharray: 5.12,1.28,0.8,1.28; stroke-dashoffset: 0; stroke: #008000; stroke-width: 0.8"/>
     </g>
     <g id="line2d_6">
      <g>
       <use xlink:href="#m5af236138b" x="367.2" y="512.64" style="stroke: #000000; stroke-width: 0.8"/>
      </g>
     </g>
     <g id="text_3">
      <!-- 5.0 -->
      <g transform="translate(359.248437 527.238438)scale(0.1 -0.1)">
       <use xlink:href="#DejaVuSans-35"/>
       <use xlink:href="#DejaVuSans-2e" x="63.623047"/>
       <use xlink:href="#DejaVuSans-30" x="95.410156"/>
      </g>
     </g>
    </g>
    <g id="xtick_4">
     <g id="line2d_7">
      <path d="M 478.8 512.64 
L 478.8 69.12 
" clip-path="url(#p715267ed6c)" style="fill: none; stroke-dasharray: 5.12,1.28,0.8,1.28; stroke-dashoffset: 0; stroke: #008000; stroke-width: 0.8"/>
     </g>
     <g id="line2d_8">
      <g>
       <use xlink:href="#m5af236138b" x="478.8" y="512.64" style="stroke: #000000; stroke-width: 0.8"/>
      </g>
     </g>
     <g id="text_4">
      <!-- 7.5 -->
      <g transform="translate(470.848437 527.238438)scale(0.1 -0.1)">
       <defs>
        <path id="DejaVuSans-37" d="M 525 4666 
L 3525 4666 
L 3525 4397 
L 1831 0 
L 1172 0 
L 2766 4134 
L 525 4134 
L 525 4666 
z
" transform="scale(0.015625)"/>
       </defs>
       <use xlink:href="#DejaVuSans-37"/>
       <use xlink:href="#DejaVuSans-2e" x="63.623047"/>
       <use xlink:href="#DejaVuSans-35" x="95.410156"/>
      </g>
     </g>
    </g>
    <g id="xtick_5">
     <g id="line2d_9">
      <path d="M 590.4 512.64 
L 590.4 69.12 
" clip-path="url(#p715267ed6c)" style="fill: none; stroke-dasharray: 5.12,1.28,0.8,1.28; stroke-dashoffset: 0; stroke: #008000; stroke-width: 0.8"/>
     </g>
     <g id="line2d_10">
      <g>
       <use xlink:href="#m5af236138b" x="590.4" y="512.64" style="stroke: #000000; stroke-width: 0.8"/>
      </g>
     </g>
     <g id="text_5">
      <!-- 10.0 -->
      <g transform="translate(579.267187 527.238438)scale(0.1 -0.1)">
       <defs>
        <path id="DejaVuSans-31" d="M 794 531 
L 1825 531 
L 1825 4091 
L 703 3866 
L 703 4441 
L 1819 4666 
L 2450 4666 
L 2450 531 
L 3481 531 
L 3481 0 
L 794 0 
L 794 531 
z
" transform="scale(0.015625)"/>
       </defs>
       <use xlink:href="#DejaVuSans-31"/>
       <use xlink:href="#DejaVuSans-30" x="63.623047"/>
       <use xlink:href="#DejaVuSans-2e" x="127.246094"/>
       <use xlink:href="#DejaVuSans-30" x="159.033203"/>
      </g>
     </g>
    </g>
    <g id="xtick_6">
     <g id="line2d_11">
      <path d="M 702 512.64 
L 702 69.12 
" clip-path="url(#p715267ed6c)" style="fill: none; stroke-dasharray: 5.12,1.28,0.8,1.28; stroke-dashoffset: 0; stroke: #008000; stroke-width: 0.8"/>
     </g>
     <g id="line2d_12">
      <g>
       <use xlink:href="#m5af236138b" x="702" y="512.64" style="stroke: #000000; stroke-width: 0.8"/>
      </g>
     </g>
     <g id="text_6">
      <!-- 12.5 -->
      <g transform="translate(690.867188 527.238438)scale(0.1 -0.1)">
       <use xlink:href="#DejaVuSans-31"/>
       <use xlink:href="#DejaVuSans-32" x="63.623047"/>
       <use xlink:href="#DejaVuSans-2e" x="127.246094"/>
       <use xlink:href="#DejaVuSans-35" x="159.033203"/>
      </g>
     </g>
    </g>
    <g id="xtick_7">
     <g id="line2d_13">
      <path d="M 813.6 512.64 
L 813.6 69.12 
" clip-path="url(#p715267ed6c)" style="fill: none; stroke-dasharray: 5.12,1.28,0.8,1.28; stroke-dashoffset: 0; stroke: #008000; stroke-width: 0.8"/>
     </g>
     <g id="line2d_14">
      <g>
       <use xlink:href="#m5af236138b" x="813.6" y="512.64" style="stroke: #000000; stroke-width: 0.8"/>
      </g>
     </g>
     <g id="text_7">
      <!-- 15.0 -->
      <g transform="translate(802.467188 527.238438)scale(0.1 -0.1)">
       <use xlink:href="#DejaVuSans-31"/>
       <use xlink:href="#DejaVuSans-35" x="63.623047"/>
       <use xlink:href="#DejaVuSans-2e" x="127.246094"/>
       <use xlink:href="#DejaVuSans-30" x="159.033203"/>
      </g>
     </g>
    </g>
    <g id="xtick_8">
     <g id="line2d_15">
      <path d="M 925.2 512.64 
L 925.2 69.12 
" clip-path="url(#p715267ed6c)" style="fill: none; stroke-dasharray: 5.12,1.28,0.8,1.28; stroke-dashoffset: 0; stroke: #008000; stroke-width: 0.8"/>
     </g>
     <g id="line2d_16">
      <g>
       <use xlink:href="#m5af236138b" x="925.2" y="512.64" style="stroke: #000000; stroke-width: 0.8"/>
      </g>
     </g>
     <g id="text_8">
      <!-- 17.5 -->
      <g transform="translate(914.067188 527.238438)scale(0.1 -0.1)">
       <use xlink:href="#DejaVuSans-31"/>
       <use xlink:href="#DejaVuSans-37" x="63.623047"/>
       <use xlink:href="#DejaVuSans-2e" x="127.246094"/>
       <use xlink:href="#DejaVuSans-35" x="159.033203"/>
      </g>
     </g>
    </g>
    <g id="xtick_9">
     <g id="line2d_17">
      <path d="M 1036.8 512.64 
L 1036.8 69.12 
" clip-path="url(#p715267ed6c)" style="fill: none; stroke-dasharray: 5.12,1.28,0.8,1.28; stroke-dashoffset: 0; stroke: #008000; stroke-width: 0.8"/>
     </g>
     <g id="line2d_18">
      <g>
       <use xlink:href="#m5af236138b" x="1036.8" y="512.64" style="stroke: #000000; stroke-width: 0.8"/>
      </g>
     </g>
     <g id="text_9">
      <!-- 20.0 -->
      <g transform="translate(1025.667187 527.238438)scale(0.1 -0.1)">
       <use xlink:href="#DejaVuSans-32"/>
       <use xlink:href="#DejaVuSans-30" x="63.623047"/>
       <use xlink:href="#DejaVuSans-2e" x="127.246094"/>
       <use xlink:href="#DejaVuSans-30" x="159.033203"/>
      </g>
     </g>
    </g>
    <g id="text_10">
     <!-- $x_1$ -->
     <g transform="translate(585.05 540.916563)scale(0.1 -0.1)">
      <defs>
       <path id="DejaVuSans-Oblique-78" d="M 3841 3500 
L 2234 1784 
L 3219 0 
L 2559 0 
L 1819 1388 
L 531 0 
L -166 0 
L 1556 1844 
L 641 3500 
L 1300 3500 
L 1972 2234 
L 3144 3500 
L 3841 3500 
z
" transform="scale(0.015625)"/>
      </defs>
      <use xlink:href="#DejaVuSans-Oblique-78" transform="translate(0 0.3125)"/>
      <use xlink:href="#DejaVuSans-31" transform="translate(59.179688 -16.09375)scale(0.7)"/>
     </g>
    </g>
   </g>
   <g id="matplotlib.axis_2">
    <g id="ytick_1">
     <g id="line2d_19">
      <path d="M 144 512.64 
L 1036.8 512.64 
" clip-path="url(#p715267ed6c)" style="fill: none; stroke-dasharray: 5.12,1.28,0.8,1.28; stroke-dashoffset: 0; stroke: #008000; stroke-width: 0.8"/>
     </g>
     <g id="line2d_20">
      <defs>
       <path id="maaecfe3d49" d="M 0 0 
L -3.5 0 
" style="stroke: #000000; stroke-width: 0.8"/>
      </defs>
      <g>
       <use xlink:href="#maaecfe3d49" x="144" y="512.64" style="stroke: #000000; stroke-width: 0.8"/>
      </g>
     </g>
     <g id="text_11">
      <!-- 5.0 -->
      <g transform="translate(121.096875 516.439219)scale(0.1 -0.1)">
       <use xlink:href="#DejaVuSans-35"/>
       <use xlink:href="#DejaVuSans-2e" x="63.623047"/>
       <use xlink:href="#DejaVuSans-30" x="95.410156"/>
      </g>
     </g>
    </g>
    <g id="ytick_2">
     <g id="line2d_21">
      <path d="M 144 457.2 
L 1036.8 457.2 
" clip-path="url(#p715267ed6c)" style="fill: none; stroke-dasharray: 5.12,1.28,0.8,1.28; stroke-dashoffset: 0; stroke: #008000; stroke-width: 0.8"/>
     </g>
     <g id="line2d_22">
      <g>
       <use xlink:href="#maaecfe3d49" x="144" y="457.2" style="stroke: #000000; stroke-width: 0.8"/>
      </g>
     </g>
     <g id="text_12">
      <!-- 7.5 -->
      <g transform="translate(121.096875 460.999219)scale(0.1 -0.1)">
       <use xlink:href="#DejaVuSans-37"/>
       <use xlink:href="#DejaVuSans-2e" x="63.623047"/>
       <use xlink:href="#DejaVuSans-35" x="95.410156"/>
      </g>
     </g>
    </g>
    <g id="ytick_3">
     <g id="line2d_23">
      <path d="M 144 401.76 
L 1036.8 401.76 
" clip-path="url(#p715267ed6c)" style="fill: none; stroke-dasharray: 5.12,1.28,0.8,1.28; stroke-dashoffset: 0; stroke: #008000; stroke-width: 0.8"/>
     </g>
     <g id="line2d_24">
      <g>
       <use xlink:href="#maaecfe3d49" x="144" y="401.76" style="stroke: #000000; stroke-width: 0.8"/>
      </g>
     </g>
     <g id="text_13">
      <!-- 10.0 -->
      <g transform="translate(114.734375 405.559219)scale(0.1 -0.1)">
       <use xlink:href="#DejaVuSans-31"/>
       <use xlink:href="#DejaVuSans-30" x="63.623047"/>
       <use xlink:href="#DejaVuSans-2e" x="127.246094"/>
       <use xlink:href="#DejaVuSans-30" x="159.033203"/>
      </g>
     </g>
    </g>
    <g id="ytick_4">
     <g id="line2d_25">
      <path d="M 144 346.32 
L 1036.8 346.32 
" clip-path="url(#p715267ed6c)" style="fill: none; stroke-dasharray: 5.12,1.28,0.8,1.28; stroke-dashoffset: 0; stroke: #008000; stroke-width: 0.8"/>
     </g>
     <g id="line2d_26">
      <g>
       <use xlink:href="#maaecfe3d49" x="144" y="346.32" style="stroke: #000000; stroke-width: 0.8"/>
      </g>
     </g>
     <g id="text_14">
      <!-- 12.5 -->
      <g transform="translate(114.734375 350.119219)scale(0.1 -0.1)">
       <use xlink:href="#DejaVuSans-31"/>
       <use xlink:href="#DejaVuSans-32" x="63.623047"/>
       <use xlink:href="#DejaVuSans-2e" x="127.246094"/>
       <use xlink:href="#DejaVuSans-35" x="159.033203"/>
      </g>
     </g>
    </g>
    <g id="ytick_5">
     <g id="line2d_27">
      <path d="M 144 290.88 
L 1036.8 290.88 
" clip-path="url(#p715267ed6c)" style="fill: none; stroke-dasharray: 5.12,1.28,0.8,1.28; stroke-dashoffset: 0; stroke: #008000; stroke-width: 0.8"/>
     </g>
     <g id="line2d_28">
      <g>
       <use xlink:href="#maaecfe3d49" x="144" y="290.88" style="stroke: #000000; stroke-width: 0.8"/>
      </g>
     </g>
     <g id="text_15">
      <!-- 15.0 -->
      <g transform="translate(114.734375 294.679219)scale(0.1 -0.1)">
       <use xlink:href="#DejaVuSans-31"/>
       <use xlink:href="#DejaVuSans-35" x="63.623047"/>
       <use xlink:href="#DejaVuSans-2e" x="127.246094"/>
       <use xlink:href="#DejaVuSans-30" x="159.033203"/>
      </g>
     </g>
    </g>
    <g id="ytick_6">
     <g id="line2d_29">
      <path d="M 144 235.44 
L 1036.8 235.44 
" clip-path="url(#p715267ed6c)" style="fill: none; stroke-dasharray: 5.12,1.28,0.8,1.28; stroke-dashoffset: 0; stroke: #008000; stroke-width: 0.8"/>
     </g>
     <g id="line2d_30">
      <g>
       <use xlink:href="#maaecfe3d49" x="144" y="235.44" style="stroke: #000000; stroke-width: 0.8"/>
      </g>
     </g>
     <g id="text_16">
      <!-- 17.5 -->
      <g transform="translate(114.734375 239.239219)scale(0.1 -0.1)">
       <use xlink:href="#DejaVuSans-31"/>
       <use xlink:href="#DejaVuSans-37" x="63.623047"/>
       <use xlink:href="#DejaVuSans-2e" x="127.246094"/>
       <use xlink:href="#DejaVuSans-35" x="159.033203"/>
      </g>
     </g>
    </g>
    <g id="ytick_7">
     <g id="line2d_31">
      <path d="M 144 180 
L 1036.8 180 
" clip-path="url(#p715267ed6c)" style="fill: none; stroke-dasharray: 5.12,1.28,0.8,1.28; stroke-dashoffset: 0; stroke: #008000; stroke-width: 0.8"/>
     </g>
     <g id="line2d_32">
      <g>
       <use xlink:href="#maaecfe3d49" x="144" y="180" style="stroke: #000000; stroke-width: 0.8"/>
      </g>
     </g>
     <g id="text_17">
      <!-- 20.0 -->
      <g transform="translate(114.734375 183.799219)scale(0.1 -0.1)">
       <use xlink:href="#DejaVuSans-32"/>
       <use xlink:href="#DejaVuSans-30" x="63.623047"/>
       <use xlink:href="#DejaVuSans-2e" x="127.246094"/>
       <use xlink:href="#DejaVuSans-30" x="159.033203"/>
      </g>
     </g>
    </g>
    <g id="ytick_8">
     <g id="line2d_33">
      <path d="M 144 124.56 
L 1036.8 124.56 
" clip-path="url(#p715267ed6c)" style="fill: none; stroke-dasharray: 5.12,1.28,0.8,1.28; stroke-dashoffset: 0; stroke: #008000; stroke-width: 0.8"/>
     </g>
     <g id="line2d_34">
      <g>
       <use xlink:href="#maaecfe3d49" x="144" y="124.56" style="stroke: #000000; stroke-width: 0.8"/>
      </g>
     </g>
     <g id="text_18">
      <!-- 22.5 -->
      <g transform="translate(114.734375 128.359219)scale(0.1 -0.1)">
       <use xlink:href="#DejaVuSans-32"/>
       <use xlink:href="#DejaVuSans-32" x="63.623047"/>
       <use xlink:href="#DejaVuSans-2e" x="127.246094"/>
       <use xlink:href="#DejaVuSans-35" x="159.033203"/>
      </g>
     </g>
    </g>
    <g id="ytick_9">
     <g id="line2d_35">
      <path d="M 144 69.12 
L 1036.8 69.12 
" clip-path="url(#p715267ed6c)" style="fill: none; stroke-dasharray: 5.12,1.28,0.8,1.28; stroke-dashoffset: 0; stroke: #008000; stroke-width: 0.8"/>
     </g>
     <g id="line2d_36">
      <g>
       <use xlink:href="#maaecfe3d49" x="144" y="69.12" style="stroke: #000000; stroke-width: 0.8"/>
      </g>
     </g>
     <g id="text_19">
      <!-- 25.0 -->
      <g transform="translate(114.734375 72.919219)scale(0.1 -0.1)">
       <use xlink:href="#DejaVuSans-32"/>
       <use xlink:href="#DejaVuSans-35" x="63.623047"/>
       <use xlink:href="#DejaVuSans-2e" x="127.246094"/>
       <use xlink:href="#DejaVuSans-30" x="159.033203"/>
      </g>
     </g>
    </g>
    <g id="text_20">
     <!-- $x_2$ -->
     <g transform="translate(108.654687 296.23)rotate(-90)scale(0.1 -0.1)">
      <use xlink:href="#DejaVuSans-Oblique-78" transform="translate(0 0.3125)"/>
      <use xlink:href="#DejaVuSans-32" transform="translate(59.179688 -16.09375)scale(0.7)"/>
     </g>
    </g>
   </g>
   <g id="line2d_37">
    <path d="M -1 291.672852 
L 1036.8 508.2048 
L 1036.8 508.2048 
" clip-path="url(#p715267ed6c)" style="fill: none; stroke-dasharray: 5.55,2.4; stroke-dashoffset: 0; stroke: #ff0000; stroke-width: 1.5"/>
   </g>
   <g id="line2d_38">
    <path d="M -1 464.121 
L 1036.8 86.796522 
L 1036.8 86.796522 
" clip-path="url(#p715267ed6c)" style="fill: none; stroke-dasharray: 1.5,2.475; stroke-dashoffset: 0; stroke: #0000ff; stroke-width: 1.5"/>
   </g>
   <g id="line2d_39">
    <path d="M 446.339649 577 
L 929.544532 -1 
L 929.544532 -1 
" clip-path="url(#p715267ed6c)" style="fill: none; stroke-dasharray: 9.6,2.4,1.5,2.4; stroke-dashoffset: 0; stroke: #bf00bf; stroke-width: 1.5"/>
   </g>
   <g id="line2d_40">
    <path d="M 300.363563 354.550901 
" clip-path="url(#p715267ed6c)" style="fill: none; stroke: #bf00bf; stroke-width: 1.5; stroke-linecap: square"/>
    <defs>
     <path id="md51a5d133c" d="M 0 3 
C 0.795609 3 1.55874 2.683901 2.12132 2.12132 
C 2.683901 1.55874 3 0.795609 3 0 
C 3 -0.795609 2.683901 -1.55874 2.12132 -2.12132 
C 1.55874 -2.683901 0.795609 -3 0 -3 
C -0.795609 -3 -1.55874 -2.683901 -2.12132 -2.12132 
C -2.683901 -1.55874 -3 -0.795609 -3 0 
C -3 0.795609 -2.683901 1.55874 -2.12132 2.12132 
C -1.55874 2.683901 -0.795609 3 0 3 
z
" style="stroke: #bf00bf"/>
    </defs>
    <g clip-path="url(#p715267ed6c)">
     <use xlink:href="#md51a5d133c" x="300.363563" y="354.550901" style="fill: #bf00bf; stroke: #bf00bf"/>
    </g>
   </g>
   <g id="line2d_41">
    <path d="M 777.25921 181.160651 
" clip-path="url(#p715267ed6c)" style="fill: none; stroke: #ff0000; stroke-width: 1.5; stroke-linecap: square"/>
    <defs>
     <path id="m8c7d3897c0" d="M 0 3 
C 0.795609 3 1.55874 2.683901 2.12132 2.12132 
C 2.683901 1.55874 3 0.795609 3 0 
C 3 -0.795609 2.683901 -1.55874 2.12132 -2.12132 
C 1.55874 -2.683901 0.795609 -3 0 -3 
C -0.795609 -3 -1.55874 -2.683901 -2.12132 -2.12132 
C -2.683901 -1.55874 -3 -0.795609 -3 0 
C -3 0.795609 -2.683901 1.55874 -2.12132 2.12132 
C -1.55874 2.683901 -0.795609 3 0 3 
z
" style="stroke: #ff0000"/>
    </defs>
    <g clip-path="url(#p715267ed6c)">
     <use xlink:href="#m8c7d3897c0" x="777.25921" y="181.160651" style="fill: #ff0000; stroke: #ff0000"/>
    </g>
   </g>
   <g id="line2d_42">
    <path d="M 583.005695 413.522814 
" clip-path="url(#p715267ed6c)" style="fill: none; stroke: #0000ff; stroke-width: 1.5; stroke-linecap: square"/>
    <defs>
     <path id="mc8597cccb7" d="M 0 3 
C 0.795609 3 1.55874 2.683901 2.12132 2.12132 
C 2.683901 1.55874 3 0.795609 3 0 
C 3 -0.795609 2.683901 -1.55874 2.12132 -2.12132 
C 1.55874 -2.683901 0.795609 -3 0 -3 
C -0.795609 -3 -1.55874 -2.683901 -2.12132 -2.12132 
C -2.683901 -1.55874 -3 -0.795609 -3 0 
C -3 0.795609 -2.683901 1.55874 -2.12132 2.12132 
C -1.55874 2.683901 -0.795609 3 0 3 
z
" style="stroke: #0000ff"/>
    </defs>
    <g clip-path="url(#p715267ed6c)">
     <use xlink:href="#mc8597cccb7" x="583.005695" y="413.522814" style="fill: #0000ff; stroke: #0000ff"/>
    </g>
   </g>
   <g id="patch_3">
    <path d="M 144 512.64 
L 144 69.12 
" style="fill: none; stroke: #000000; stroke-width: 0.8; stroke-linejoin: miter; stroke-linecap: square"/>
   </g>
   <g id="patch_4">
    <path d="M 1036.8 512.64 
L 1036.8 69.12 
" style="fill: none; stroke: #000000; stroke-width: 0.8; stroke-linejoin: miter; stroke-linecap: square"/>
   </g>
   <g id="patch_5">
    <path d="M 144 512.64 
L 1036.8 512.64 
" style="fill: none; stroke: #000000; stroke-width: 0.8; stroke-linejoin: miter; stroke-linecap: square"/>
   </g>
   <g id="patch_6">
    <path d="M 144 69.12 
L 1036.8 69.12 
" style="fill: none; stroke: #000000; stroke-width: 0.8; stroke-linejoin: miter; stroke-linecap: square"/>
   </g>
   <g id="text_21">
    <!-- $4.2x_1 + 10x_2 = 136$ -->
    <g transform="translate(702 428.3712)rotate(11.90741)scale(0.1 -0.1)">
     <defs>
      <path id="DejaVuSans-34" d="M 2419 4116 
L 825 1625 
L 2419 1625 
L 2419 4116 
z
M 2253 4666 
L 3047 4666 
L 3047 1625 
L 3713 1625 
L 3713 1100 
L 3047 1100 
L 3047 0 
L 2419 0 
L 2419 1100 
L 313 1100 
L 313 1709 
L 2253 4666 
z
" transform="scale(0.015625)"/>
      <path id="DejaVuSans-2b" d="M 2944 4013 
L 2944 2272 
L 4684 2272 
L 4684 1741 
L 2944 1741 
L 2944 0 
L 2419 0 
L 2419 1741 
L 678 1741 
L 678 2272 
L 2419 2272 
L 2419 4013 
L 2944 4013 
z
" transform="scale(0.015625)"/>
      <path id="DejaVuSans-3d" d="M 678 2906 
L 4684 2906 
L 4684 2381 
L 678 2381 
L 678 2906 
z
M 678 1631 
L 4684 1631 
L 4684 1100 
L 678 1100 
L 678 1631 
z
" transform="scale(0.015625)"/>
      <path id="DejaVuSans-33" d="M 2597 2516 
Q 3050 2419 3304 2112 
Q 3559 1806 3559 1356 
Q 3559 666 3084 287 
Q 2609 -91 1734 -91 
Q 1441 -91 1130 -33 
Q 819 25 488 141 
L 488 750 
Q 750 597 1062 519 
Q 1375 441 1716 441 
Q 2309 441 2620 675 
Q 2931 909 2931 1356 
Q 2931 1769 2642 2001 
Q 2353 2234 1838 2234 
L 1294 2234 
L 1294 2753 
L 1863 2753 
Q 2328 2753 2575 2939 
Q 2822 3125 2822 3475 
Q 2822 3834 2567 4026 
Q 2313 4219 1838 4219 
Q 1578 4219 1281 4162 
Q 984 4106 628 3988 
L 628 4550 
Q 988 4650 1302 4700 
Q 1616 4750 1894 4750 
Q 2613 4750 3031 4423 
Q 3450 4097 3450 3541 
Q 3450 3153 3228 2886 
Q 3006 2619 2597 2516 
z
" transform="scale(0.015625)"/>
      <path id="DejaVuSans-36" d="M 2113 2584 
Q 1688 2584 1439 2293 
Q 1191 2003 1191 1497 
Q 1191 994 1439 701 
Q 1688 409 2113 409 
Q 2538 409 2786 701 
Q 3034 994 3034 1497 
Q 3034 2003 2786 2293 
Q 2538 2584 2113 2584 
z
M 3366 4563 
L 3366 3988 
Q 3128 4100 2886 4159 
Q 2644 4219 2406 4219 
Q 1781 4219 1451 3797 
Q 1122 3375 1075 2522 
Q 1259 2794 1537 2939 
Q 1816 3084 2150 3084 
Q 2853 3084 3261 2657 
Q 3669 2231 3669 1497 
Q 3669 778 3244 343 
Q 2819 -91 2113 -91 
Q 1303 -91 875 529 
Q 447 1150 447 2328 
Q 447 3434 972 4092 
Q 1497 4750 2381 4750 
Q 2619 4750 2861 4703 
Q 3103 4656 3366 4563 
z
" transform="scale(0.015625)"/>
     </defs>
     <use xlink:href="#DejaVuSans-34" transform="translate(0 0.78125)"/>
     <use xlink:href="#DejaVuSans-2e" transform="translate(63.623047 0.78125)"/>
     <use xlink:href="#DejaVuSans-32" transform="translate(89.910156 0.78125)"/>
     <use xlink:href="#DejaVuSans-Oblique-78" transform="translate(153.533203 0.78125)"/>
     <use xlink:href="#DejaVuSans-31" transform="translate(212.712891 -15.625)scale(0.7)"/>
     <use xlink:href="#DejaVuSans-2b" transform="translate(279.46582 0.78125)"/>
     <use xlink:href="#DejaVuSans-31" transform="translate(382.737305 0.78125)"/>
     <use xlink:href="#DejaVuSans-30" transform="translate(446.360352 0.78125)"/>
     <use xlink:href="#DejaVuSans-Oblique-78" transform="translate(509.983398 0.78125)"/>
     <use xlink:href="#DejaVuSans-32" transform="translate(569.163086 -15.625)scale(0.7)"/>
     <use xlink:href="#DejaVuSans-3d" transform="translate(635.916016 0.78125)"/>
     <use xlink:href="#DejaVuSans-31" transform="translate(739.1875 0.78125)"/>
     <use xlink:href="#DejaVuSans-33" transform="translate(802.810547 0.78125)"/>
     <use xlink:href="#DejaVuSans-36" transform="translate(866.433594 0.78125)"/>
    </g>
   </g>
   <g id="text_22">
    <!-- $-10.1x_1 + 13.8x_2 = 132$ -->
    <g transform="translate(478.8 284.2272)rotate(-20.523197)scale(0.1 -0.1)">
     <defs>
      <path id="DejaVuSans-2212" d="M 678 2272 
L 4684 2272 
L 4684 1741 
L 678 1741 
L 678 2272 
z
" transform="scale(0.015625)"/>
      <path id="DejaVuSans-38" d="M 2034 2216 
Q 1584 2216 1326 1975 
Q 1069 1734 1069 1313 
Q 1069 891 1326 650 
Q 1584 409 2034 409 
Q 2484 409 2743 651 
Q 3003 894 3003 1313 
Q 3003 1734 2745 1975 
Q 2488 2216 2034 2216 
z
M 1403 2484 
Q 997 2584 770 2862 
Q 544 3141 544 3541 
Q 544 4100 942 4425 
Q 1341 4750 2034 4750 
Q 2731 4750 3128 4425 
Q 3525 4100 3525 3541 
Q 3525 3141 3298 2862 
Q 3072 2584 2669 2484 
Q 3125 2378 3379 2068 
Q 3634 1759 3634 1313 
Q 3634 634 3220 271 
Q 2806 -91 2034 -91 
Q 1263 -91 848 271 
Q 434 634 434 1313 
Q 434 1759 690 2068 
Q 947 2378 1403 2484 
z
M 1172 3481 
Q 1172 3119 1398 2916 
Q 1625 2713 2034 2713 
Q 2441 2713 2670 2916 
Q 2900 3119 2900 3481 
Q 2900 3844 2670 4047 
Q 2441 4250 2034 4250 
Q 1625 4250 1398 4047 
Q 1172 3844 1172 3481 
z
" transform="scale(0.015625)"/>
     </defs>
     <use xlink:href="#DejaVuSans-2212" transform="translate(0 0.78125)"/>
     <use xlink:href="#DejaVuSans-31" transform="translate(83.789062 0.78125)"/>
     <use xlink:href="#DejaVuSans-30" transform="translate(147.412109 0.78125)"/>
     <use xlink:href="#DejaVuSans-2e" transform="translate(211.035156 0.78125)"/>
     <use xlink:href="#DejaVuSans-31" transform="translate(242.822266 0.78125)"/>
     <use xlink:href="#DejaVuSans-Oblique-78" transform="translate(306.445312 0.78125)"/>
     <use xlink:href="#DejaVuSans-31" transform="translate(365.625 -15.625)scale(0.7)"/>
     <use xlink:href="#DejaVuSans-2b" transform="translate(432.37793 0.78125)"/>
     <use xlink:href="#DejaVuSans-31" transform="translate(535.649414 0.78125)"/>
     <use xlink:href="#DejaVuSans-33" transform="translate(599.272461 0.78125)"/>
     <use xlink:href="#DejaVuSans-2e" transform="translate(662.895508 0.78125)"/>
     <use xlink:href="#DejaVuSans-38" transform="translate(692.057617 0.78125)"/>
     <use xlink:href="#DejaVuSans-Oblique-78" transform="translate(755.680664 0.78125)"/>
     <use xlink:href="#DejaVuSans-32" transform="translate(814.860352 -15.625)scale(0.7)"/>
     <use xlink:href="#DejaVuSans-3d" transform="translate(881.613281 0.78125)"/>
     <use xlink:href="#DejaVuSans-31" transform="translate(984.884766 0.78125)"/>
     <use xlink:href="#DejaVuSans-33" transform="translate(1048.507812 0.78125)"/>
     <use xlink:href="#DejaVuSans-32" transform="translate(1112.130859 0.78125)"/>
    </g>
   </g>
   <g id="text_23">
    <!-- $18.3x_1 - 7.6x_2 = 108$ -->
    <g transform="translate(590.4 390.672)rotate(-50.178432)scale(0.1 -0.1)">
     <use xlink:href="#DejaVuSans-31" transform="translate(0 0.78125)"/>
     <use xlink:href="#DejaVuSans-38" transform="translate(63.623047 0.78125)"/>
     <use xlink:href="#DejaVuSans-2e" transform="translate(127.246094 0.78125)"/>
     <use xlink:href="#DejaVuSans-33" transform="translate(159.033203 0.78125)"/>
     <use xlink:href="#DejaVuSans-Oblique-78" transform="translate(222.65625 0.78125)"/>
     <use xlink:href="#DejaVuSans-31" transform="translate(281.835938 -15.625)scale(0.7)"/>
     <use xlink:href="#DejaVuSans-2212" transform="translate(348.588867 0.78125)"/>
     <use xlink:href="#DejaVuSans-37" transform="translate(451.860352 0.78125)"/>
     <use xlink:href="#DejaVuSans-2e" transform="translate(515.483398 0.78125)"/>
     <use xlink:href="#DejaVuSans-36" transform="translate(547.270508 0.78125)"/>
     <use xlink:href="#DejaVuSans-Oblique-78" transform="translate(610.893555 0.78125)"/>
     <use xlink:href="#DejaVuSans-32" transform="translate(670.073242 -15.625)scale(0.7)"/>
     <use xlink:href="#DejaVuSans-3d" transform="translate(736.826172 0.78125)"/>
     <use xlink:href="#DejaVuSans-31" transform="translate(840.097656 0.78125)"/>
     <use xlink:href="#DejaVuSans-30" transform="translate(903.720703 0.78125)"/>
     <use xlink:href="#DejaVuSans-38" transform="translate(967.34375 0.78125)"/>
    </g>
   </g>
   <g id="patch_7">
    <path d="M 258.741745 163.859688 
Q 279.339579 258.229085 299.698994 351.506164 
" style="fill: none; stroke: #000000; stroke-linecap: round"/>
    <path d="M 300.8 347.171676 
L 299.698994 351.506164 
L 296.892007 348.024666 
" style="fill: none; stroke: #000000; stroke-linecap: round"/>
   </g>
   <g id="text_24">
    <!-- The intersection point of -->
    <g transform="translate(194.304688 146.626187)scale(0.1 -0.1)">
     <defs>
      <path id="DejaVuSans-54" d="M -19 4666 
L 3928 4666 
L 3928 4134 
L 2272 4134 
L 2272 0 
L 1638 0 
L 1638 4134 
L -19 4134 
L -19 4666 
z
" transform="scale(0.015625)"/>
      <path id="DejaVuSans-68" d="M 3513 2113 
L 3513 0 
L 2938 0 
L 2938 2094 
Q 2938 2591 2744 2837 
Q 2550 3084 2163 3084 
Q 1697 3084 1428 2787 
Q 1159 2491 1159 1978 
L 1159 0 
L 581 0 
L 581 4863 
L 1159 4863 
L 1159 2956 
Q 1366 3272 1645 3428 
Q 1925 3584 2291 3584 
Q 2894 3584 3203 3211 
Q 3513 2838 3513 2113 
z
" transform="scale(0.015625)"/>
      <path id="DejaVuSans-65" d="M 3597 1894 
L 3597 1613 
L 953 1613 
Q 991 1019 1311 708 
Q 1631 397 2203 397 
Q 2534 397 2845 478 
Q 3156 559 3463 722 
L 3463 178 
Q 3153 47 2828 -22 
Q 2503 -91 2169 -91 
Q 1331 -91 842 396 
Q 353 884 353 1716 
Q 353 2575 817 3079 
Q 1281 3584 2069 3584 
Q 2775 3584 3186 3129 
Q 3597 2675 3597 1894 
z
M 3022 2063 
Q 3016 2534 2758 2815 
Q 2500 3097 2075 3097 
Q 1594 3097 1305 2825 
Q 1016 2553 972 2059 
L 3022 2063 
z
" transform="scale(0.015625)"/>
      <path id="DejaVuSans-20" transform="scale(0.015625)"/>
      <path id="DejaVuSans-69" d="M 603 3500 
L 1178 3500 
L 1178 0 
L 603 0 
L 603 3500 
z
M 603 4863 
L 1178 4863 
L 1178 4134 
L 603 4134 
L 603 4863 
z
" transform="scale(0.015625)"/>
      <path id="DejaVuSans-6e" d="M 3513 2113 
L 3513 0 
L 2938 0 
L 2938 2094 
Q 2938 2591 2744 2837 
Q 2550 3084 2163 3084 
Q 1697 3084 1428 2787 
Q 1159 2491 1159 1978 
L 1159 0 
L 581 0 
L 581 3500 
L 1159 3500 
L 1159 2956 
Q 1366 3272 1645 3428 
Q 1925 3584 2291 3584 
Q 2894 3584 3203 3211 
Q 3513 2838 3513 2113 
z
" transform="scale(0.015625)"/>
      <path id="DejaVuSans-74" d="M 1172 4494 
L 1172 3500 
L 2356 3500 
L 2356 3053 
L 1172 3053 
L 1172 1153 
Q 1172 725 1289 603 
Q 1406 481 1766 481 
L 2356 481 
L 2356 0 
L 1766 0 
Q 1100 0 847 248 
Q 594 497 594 1153 
L 594 3053 
L 172 3053 
L 172 3500 
L 594 3500 
L 594 4494 
L 1172 4494 
z
" transform="scale(0.015625)"/>
      <path id="DejaVuSans-72" d="M 2631 2963 
Q 2534 3019 2420 3045 
Q 2306 3072 2169 3072 
Q 1681 3072 1420 2755 
Q 1159 2438 1159 1844 
L 1159 0 
L 581 0 
L 581 3500 
L 1159 3500 
L 1159 2956 
Q 1341 3275 1631 3429 
Q 1922 3584 2338 3584 
Q 2397 3584 2469 3576 
Q 2541 3569 2628 3553 
L 2631 2963 
z
" transform="scale(0.015625)"/>
      <path id="DejaVuSans-73" d="M 2834 3397 
L 2834 2853 
Q 2591 2978 2328 3040 
Q 2066 3103 1784 3103 
Q 1356 3103 1142 2972 
Q 928 2841 928 2578 
Q 928 2378 1081 2264 
Q 1234 2150 1697 2047 
L 1894 2003 
Q 2506 1872 2764 1633 
Q 3022 1394 3022 966 
Q 3022 478 2636 193 
Q 2250 -91 1575 -91 
Q 1294 -91 989 -36 
Q 684 19 347 128 
L 347 722 
Q 666 556 975 473 
Q 1284 391 1588 391 
Q 1994 391 2212 530 
Q 2431 669 2431 922 
Q 2431 1156 2273 1281 
Q 2116 1406 1581 1522 
L 1381 1569 
Q 847 1681 609 1914 
Q 372 2147 372 2553 
Q 372 3047 722 3315 
Q 1072 3584 1716 3584 
Q 2034 3584 2315 3537 
Q 2597 3491 2834 3397 
z
" transform="scale(0.015625)"/>
      <path id="DejaVuSans-63" d="M 3122 3366 
L 3122 2828 
Q 2878 2963 2633 3030 
Q 2388 3097 2138 3097 
Q 1578 3097 1268 2742 
Q 959 2388 959 1747 
Q 959 1106 1268 751 
Q 1578 397 2138 397 
Q 2388 397 2633 464 
Q 2878 531 3122 666 
L 3122 134 
Q 2881 22 2623 -34 
Q 2366 -91 2075 -91 
Q 1284 -91 818 406 
Q 353 903 353 1747 
Q 353 2603 823 3093 
Q 1294 3584 2113 3584 
Q 2378 3584 2631 3529 
Q 2884 3475 3122 3366 
z
" transform="scale(0.015625)"/>
      <path id="DejaVuSans-6f" d="M 1959 3097 
Q 1497 3097 1228 2736 
Q 959 2375 959 1747 
Q 959 1119 1226 758 
Q 1494 397 1959 397 
Q 2419 397 2687 759 
Q 2956 1122 2956 1747 
Q 2956 2369 2687 2733 
Q 2419 3097 1959 3097 
z
M 1959 3584 
Q 2709 3584 3137 3096 
Q 3566 2609 3566 1747 
Q 3566 888 3137 398 
Q 2709 -91 1959 -91 
Q 1206 -91 779 398 
Q 353 888 353 1747 
Q 353 2609 779 3096 
Q 1206 3584 1959 3584 
z
" transform="scale(0.015625)"/>
      <path id="DejaVuSans-70" d="M 1159 525 
L 1159 -1331 
L 581 -1331 
L 581 3500 
L 1159 3500 
L 1159 2969 
Q 1341 3281 1617 3432 
Q 1894 3584 2278 3584 
Q 2916 3584 3314 3078 
Q 3713 2572 3713 1747 
Q 3713 922 3314 415 
Q 2916 -91 2278 -91 
Q 1894 -91 1617 61 
Q 1341 213 1159 525 
z
M 3116 1747 
Q 3116 2381 2855 2742 
Q 2594 3103 2138 3103 
Q 1681 3103 1420 2742 
Q 1159 2381 1159 1747 
Q 1159 1113 1420 752 
Q 1681 391 2138 391 
Q 2594 391 2855 752 
Q 3116 1113 3116 1747 
z
" transform="scale(0.015625)"/>
      <path id="DejaVuSans-66" d="M 2375 4863 
L 2375 4384 
L 1825 4384 
Q 1516 4384 1395 4259 
Q 1275 4134 1275 3809 
L 1275 3500 
L 2222 3500 
L 2222 3053 
L 1275 3053 
L 1275 0 
L 697 0 
L 697 3053 
L 147 3053 
L 147 3500 
L 697 3500 
L 697 3744 
Q 697 4328 969 4595 
Q 1241 4863 1831 4863 
L 2375 4863 
z
" transform="scale(0.015625)"/>
     </defs>
     <use xlink:href="#DejaVuSans-54"/>
     <use xlink:href="#DejaVuSans-68" x="61.083984"/>
     <use xlink:href="#DejaVuSans-65" x="124.462891"/>
     <use xlink:href="#DejaVuSans-20" x="185.986328"/>
     <use xlink:href="#DejaVuSans-69" x="217.773438"/>
     <use xlink:href="#DejaVuSans-6e" x="245.556641"/>
     <use xlink:href="#DejaVuSans-74" x="308.935547"/>
     <use xlink:href="#DejaVuSans-65" x="348.144531"/>
     <use xlink:href="#DejaVuSans-72" x="409.667969"/>
     <use xlink:href="#DejaVuSans-73" x="450.78125"/>
     <use xlink:href="#DejaVuSans-65" x="502.880859"/>
     <use xlink:href="#DejaVuSans-63" x="564.404297"/>
     <use xlink:href="#DejaVuSans-74" x="619.384766"/>
     <use xlink:href="#DejaVuSans-69" x="658.59375"/>
     <use xlink:href="#DejaVuSans-6f" x="686.376953"/>
     <use xlink:href="#DejaVuSans-6e" x="747.558594"/>
     <use xlink:href="#DejaVuSans-20" x="810.9375"/>
     <use xlink:href="#DejaVuSans-70" x="842.724609"/>
     <use xlink:href="#DejaVuSans-6f" x="906.201172"/>
     <use xlink:href="#DejaVuSans-69" x="967.382812"/>
     <use xlink:href="#DejaVuSans-6e" x="995.166016"/>
     <use xlink:href="#DejaVuSans-74" x="1058.544922"/>
     <use xlink:href="#DejaVuSans-20" x="1097.753906"/>
     <use xlink:href="#DejaVuSans-6f" x="1129.541016"/>
     <use xlink:href="#DejaVuSans-66" x="1190.722656"/>
    </g>
    <!--  f[0] and f[1] -->
    <g transform="translate(223.739844 157.824)scale(0.1 -0.1)">
     <defs>
      <path id="DejaVuSans-5b" d="M 550 4863 
L 1875 4863 
L 1875 4416 
L 1125 4416 
L 1125 -397 
L 1875 -397 
L 1875 -844 
L 550 -844 
L 550 4863 
z
" transform="scale(0.015625)"/>
      <path id="DejaVuSans-5d" d="M 1947 4863 
L 1947 -844 
L 622 -844 
L 622 -397 
L 1369 -397 
L 1369 4416 
L 622 4416 
L 622 4863 
L 1947 4863 
z
" transform="scale(0.015625)"/>
      <path id="DejaVuSans-61" d="M 2194 1759 
Q 1497 1759 1228 1600 
Q 959 1441 959 1056 
Q 959 750 1161 570 
Q 1363 391 1709 391 
Q 2188 391 2477 730 
Q 2766 1069 2766 1631 
L 2766 1759 
L 2194 1759 
z
M 3341 1997 
L 3341 0 
L 2766 0 
L 2766 531 
Q 2569 213 2275 61 
Q 1981 -91 1556 -91 
Q 1019 -91 701 211 
Q 384 513 384 1019 
Q 384 1609 779 1909 
Q 1175 2209 1959 2209 
L 2766 2209 
L 2766 2266 
Q 2766 2663 2505 2880 
Q 2244 3097 1772 3097 
Q 1472 3097 1187 3025 
Q 903 2953 641 2809 
L 641 3341 
Q 956 3463 1253 3523 
Q 1550 3584 1831 3584 
Q 2591 3584 2966 3190 
Q 3341 2797 3341 1997 
z
" transform="scale(0.015625)"/>
      <path id="DejaVuSans-64" d="M 2906 2969 
L 2906 4863 
L 3481 4863 
L 3481 0 
L 2906 0 
L 2906 525 
Q 2725 213 2448 61 
Q 2172 -91 1784 -91 
Q 1150 -91 751 415 
Q 353 922 353 1747 
Q 353 2572 751 3078 
Q 1150 3584 1784 3584 
Q 2172 3584 2448 3432 
Q 2725 3281 2906 2969 
z
M 947 1747 
Q 947 1113 1208 752 
Q 1469 391 1925 391 
Q 2381 391 2643 752 
Q 2906 1113 2906 1747 
Q 2906 2381 2643 2742 
Q 2381 3103 1925 3103 
Q 1469 3103 1208 2742 
Q 947 2381 947 1747 
z
" transform="scale(0.015625)"/>
     </defs>
     <use xlink:href="#DejaVuSans-20"/>
     <use xlink:href="#DejaVuSans-66" x="31.787109"/>
     <use xlink:href="#DejaVuSans-5b" x="66.992188"/>
     <use xlink:href="#DejaVuSans-30" x="106.005859"/>
     <use xlink:href="#DejaVuSans-5d" x="169.628906"/>
     <use xlink:href="#DejaVuSans-20" x="208.642578"/>
     <use xlink:href="#DejaVuSans-61" x="240.429688"/>
     <use xlink:href="#DejaVuSans-6e" x="301.708984"/>
     <use xlink:href="#DejaVuSans-64" x="365.087891"/>
     <use xlink:href="#DejaVuSans-20" x="428.564453"/>
     <use xlink:href="#DejaVuSans-66" x="460.351562"/>
     <use xlink:href="#DejaVuSans-5b" x="495.556641"/>
     <use xlink:href="#DejaVuSans-31" x="534.570312"/>
     <use xlink:href="#DejaVuSans-5d" x="598.193359"/>
    </g>
   </g>
   <g id="patch_8">
    <path d="M 808.233715 263.773901 
Q 793.097629 223.403886 778.354051 184.080741 
" style="fill: none; stroke: #000000; stroke-linecap: round"/>
    <path d="M 777.885628 188.528277 
L 778.354051 184.080741 
L 781.631027 187.124 
" style="fill: none; stroke: #000000; stroke-linecap: round"/>
   </g>
   <g id="text_25">
    <!-- The intersection point of -->
    <g transform="translate(752.304688 275.246987)scale(0.1 -0.1)">
     <use xlink:href="#DejaVuSans-54"/>
     <use xlink:href="#DejaVuSans-68" x="61.083984"/>
     <use xlink:href="#DejaVuSans-65" x="124.462891"/>
     <use xlink:href="#DejaVuSans-20" x="185.986328"/>
     <use xlink:href="#DejaVuSans-69" x="217.773438"/>
     <use xlink:href="#DejaVuSans-6e" x="245.556641"/>
     <use xlink:href="#DejaVuSans-74" x="308.935547"/>
     <use xlink:href="#DejaVuSans-65" x="348.144531"/>
     <use xlink:href="#DejaVuSans-72" x="409.667969"/>
     <use xlink:href="#DejaVuSans-73" x="450.78125"/>
     <use xlink:href="#DejaVuSans-65" x="502.880859"/>
     <use xlink:href="#DejaVuSans-63" x="564.404297"/>
     <use xlink:href="#DejaVuSans-74" x="619.384766"/>
     <use xlink:href="#DejaVuSans-69" x="658.59375"/>
     <use xlink:href="#DejaVuSans-6f" x="686.376953"/>
     <use xlink:href="#DejaVuSans-6e" x="747.558594"/>
     <use xlink:href="#DejaVuSans-20" x="810.9375"/>
     <use xlink:href="#DejaVuSans-70" x="842.724609"/>
     <use xlink:href="#DejaVuSans-6f" x="906.201172"/>
     <use xlink:href="#DejaVuSans-69" x="967.382812"/>
     <use xlink:href="#DejaVuSans-6e" x="995.166016"/>
     <use xlink:href="#DejaVuSans-74" x="1058.544922"/>
     <use xlink:href="#DejaVuSans-20" x="1097.753906"/>
     <use xlink:href="#DejaVuSans-6f" x="1129.541016"/>
     <use xlink:href="#DejaVuSans-66" x="1190.722656"/>
    </g>
    <!--  f[1] and f[2] -->
    <g transform="translate(781.739844 286.4448)scale(0.1 -0.1)">
     <use xlink:href="#DejaVuSans-20"/>
     <use xlink:href="#DejaVuSans-66" x="31.787109"/>
     <use xlink:href="#DejaVuSans-5b" x="66.992188"/>
     <use xlink:href="#DejaVuSans-31" x="106.005859"/>
     <use xlink:href="#DejaVuSans-5d" x="169.628906"/>
     <use xlink:href="#DejaVuSans-20" x="208.642578"/>
     <use xlink:href="#DejaVuSans-61" x="240.429688"/>
     <use xlink:href="#DejaVuSans-6e" x="301.708984"/>
     <use xlink:href="#DejaVuSans-64" x="365.087891"/>
     <use xlink:href="#DejaVuSans-20" x="428.564453"/>
     <use xlink:href="#DejaVuSans-66" x="460.351562"/>
     <use xlink:href="#DejaVuSans-5b" x="495.556641"/>
     <use xlink:href="#DejaVuSans-32" x="534.570312"/>
     <use xlink:href="#DejaVuSans-5d" x="598.193359"/>
    </g>
   </g>
   <g id="patch_9">
    <path d="M 343.213239 432.567916 
Q 462.112405 423.124555 579.897047 413.769713 
" style="fill: none; stroke: #000000; stroke-linecap: round"/>
    <path d="M 575.751256 412.092687 
L 579.897047 413.769713 
L 576.067952 416.08013 
" style="fill: none; stroke: #000000; stroke-linecap: round"/>
   </g>
   <g id="text_26">
    <!-- The intersection point of -->
    <g transform="translate(216.624688 434.914188)scale(0.1 -0.1)">
     <use xlink:href="#DejaVuSans-54"/>
     <use xlink:href="#DejaVuSans-68" x="61.083984"/>
     <use xlink:href="#DejaVuSans-65" x="124.462891"/>
     <use xlink:href="#DejaVuSans-20" x="185.986328"/>
     <use xlink:href="#DejaVuSans-69" x="217.773438"/>
     <use xlink:href="#DejaVuSans-6e" x="245.556641"/>
     <use xlink:href="#DejaVuSans-74" x="308.935547"/>
     <use xlink:href="#DejaVuSans-65" x="348.144531"/>
     <use xlink:href="#DejaVuSans-72" x="409.667969"/>
     <use xlink:href="#DejaVuSans-73" x="450.78125"/>
     <use xlink:href="#DejaVuSans-65" x="502.880859"/>
     <use xlink:href="#DejaVuSans-63" x="564.404297"/>
     <use xlink:href="#DejaVuSans-74" x="619.384766"/>
     <use xlink:href="#DejaVuSans-69" x="658.59375"/>
     <use xlink:href="#DejaVuSans-6f" x="686.376953"/>
     <use xlink:href="#DejaVuSans-6e" x="747.558594"/>
     <use xlink:href="#DejaVuSans-20" x="810.9375"/>
     <use xlink:href="#DejaVuSans-70" x="842.724609"/>
     <use xlink:href="#DejaVuSans-6f" x="906.201172"/>
     <use xlink:href="#DejaVuSans-69" x="967.382812"/>
     <use xlink:href="#DejaVuSans-6e" x="995.166016"/>
     <use xlink:href="#DejaVuSans-74" x="1058.544922"/>
     <use xlink:href="#DejaVuSans-20" x="1097.753906"/>
     <use xlink:href="#DejaVuSans-6f" x="1129.541016"/>
     <use xlink:href="#DejaVuSans-66" x="1190.722656"/>
    </g>
    <!--  f[0] and f[2] -->
    <g transform="translate(246.059844 446.112)scale(0.1 -0.1)">
     <use xlink:href="#DejaVuSans-20"/>
     <use xlink:href="#DejaVuSans-66" x="31.787109"/>
     <use xlink:href="#DejaVuSans-5b" x="66.992188"/>
     <use xlink:href="#DejaVuSans-30" x="106.005859"/>
     <use xlink:href="#DejaVuSans-5d" x="169.628906"/>
     <use xlink:href="#DejaVuSans-20" x="208.642578"/>
     <use xlink:href="#DejaVuSans-61" x="240.429688"/>
     <use xlink:href="#DejaVuSans-6e" x="301.708984"/>
     <use xlink:href="#DejaVuSans-64" x="365.087891"/>
     <use xlink:href="#DejaVuSans-20" x="428.564453"/>
     <use xlink:href="#DejaVuSans-66" x="460.351562"/>
     <use xlink:href="#DejaVuSans-5b" x="495.556641"/>
     <use xlink:href="#DejaVuSans-32" x="534.570312"/>
     <use xlink:href="#DejaVuSans-5d" x="598.193359"/>
    </g>
   </g>
   <g id="text_27">
    <!-- All lines in one figure -->
    <g transform="translate(527.331563 63.12)scale(0.12 -0.12)">
     <defs>
      <path id="DejaVuSans-41" d="M 2188 4044 
L 1331 1722 
L 3047 1722 
L 2188 4044 
z
M 1831 4666 
L 2547 4666 
L 4325 0 
L 3669 0 
L 3244 1197 
L 1141 1197 
L 716 0 
L 50 0 
L 1831 4666 
z
" transform="scale(0.015625)"/>
      <path id="DejaVuSans-6c" d="M 603 4863 
L 1178 4863 
L 1178 0 
L 603 0 
L 603 4863 
z
" transform="scale(0.015625)"/>
      <path id="DejaVuSans-67" d="M 2906 1791 
Q 2906 2416 2648 2759 
Q 2391 3103 1925 3103 
Q 1463 3103 1205 2759 
Q 947 2416 947 1791 
Q 947 1169 1205 825 
Q 1463 481 1925 481 
Q 2391 481 2648 825 
Q 2906 1169 2906 1791 
z
M 3481 434 
Q 3481 -459 3084 -895 
Q 2688 -1331 1869 -1331 
Q 1566 -1331 1297 -1286 
Q 1028 -1241 775 -1147 
L 775 -588 
Q 1028 -725 1275 -790 
Q 1522 -856 1778 -856 
Q 2344 -856 2625 -561 
Q 2906 -266 2906 331 
L 2906 616 
Q 2728 306 2450 153 
Q 2172 0 1784 0 
Q 1141 0 747 490 
Q 353 981 353 1791 
Q 353 2603 747 3093 
Q 1141 3584 1784 3584 
Q 2172 3584 2450 3431 
Q 2728 3278 2906 2969 
L 2906 3500 
L 3481 3500 
L 3481 434 
z
" transform="scale(0.015625)"/>
      <path id="DejaVuSans-75" d="M 544 1381 
L 544 3500 
L 1119 3500 
L 1119 1403 
Q 1119 906 1312 657 
Q 1506 409 1894 409 
Q 2359 409 2629 706 
Q 2900 1003 2900 1516 
L 2900 3500 
L 3475 3500 
L 3475 0 
L 2900 0 
L 2900 538 
Q 2691 219 2414 64 
Q 2138 -91 1772 -91 
Q 1169 -91 856 284 
Q 544 659 544 1381 
z
M 1991 3584 
L 1991 3584 
z
" transform="scale(0.015625)"/>
     </defs>
     <use xlink:href="#DejaVuSans-41"/>
     <use xlink:href="#DejaVuSans-6c" x="68.408203"/>
     <use xlink:href="#DejaVuSans-6c" x="96.191406"/>
     <use xlink:href="#DejaVuSans-20" x="123.974609"/>
     <use xlink:href="#DejaVuSans-6c" x="155.761719"/>
     <use xlink:href="#DejaVuSans-69" x="183.544922"/>
     <use xlink:href="#DejaVuSans-6e" x="211.328125"/>
     <use xlink:href="#DejaVuSans-65" x="274.707031"/>
     <use xlink:href="#DejaVuSans-73" x="336.230469"/>
     <use xlink:href="#DejaVuSans-20" x="388.330078"/>
     <use xlink:href="#DejaVuSans-69" x="420.117188"/>
     <use xlink:href="#DejaVuSans-6e" x="447.900391"/>
     <use xlink:href="#DejaVuSans-20" x="511.279297"/>
     <use xlink:href="#DejaVuSans-6f" x="543.066406"/>
     <use xlink:href="#DejaVuSans-6e" x="604.248047"/>
     <use xlink:href="#DejaVuSans-65" x="667.626953"/>
     <use xlink:href="#DejaVuSans-20" x="729.150391"/>
     <use xlink:href="#DejaVuSans-66" x="760.9375"/>
     <use xlink:href="#DejaVuSans-69" x="796.142578"/>
     <use xlink:href="#DejaVuSans-67" x="823.925781"/>
     <use xlink:href="#DejaVuSans-75" x="887.402344"/>
     <use xlink:href="#DejaVuSans-72" x="950.78125"/>
     <use xlink:href="#DejaVuSans-65" x="989.644531"/>
    </g>
   </g>
   <g id="legend_1">
    <g id="patch_10">
     <path d="M 151 121.154375 
L 200.685937 121.154375 
Q 202.685937 121.154375 202.685937 119.154375 
L 202.685937 76.12 
Q 202.685937 74.12 200.685937 74.12 
L 151 74.12 
Q 149 74.12 149 76.12 
L 149 119.154375 
Q 149 121.154375 151 121.154375 
z
" style="fill: #ffffff; opacity: 0.8; stroke: #cccccc; stroke-linejoin: miter"/>
    </g>
    <g id="line2d_43">
     <path d="M 153 82.218438 
L 163 82.218438 
L 173 82.218438 
" style="fill: none; stroke-dasharray: 5.55,2.4; stroke-dashoffset: 0; stroke: #ff0000; stroke-width: 1.5"/>
    </g>
    <g id="text_28">
     <!-- f[0] -->
     <g transform="translate(181 85.718438)scale(0.1 -0.1)">
      <use xlink:href="#DejaVuSans-66"/>
      <use xlink:href="#DejaVuSans-5b" x="35.205078"/>
      <use xlink:href="#DejaVuSans-30" x="74.21875"/>
      <use xlink:href="#DejaVuSans-5d" x="137.841797"/>
     </g>
    </g>
    <g id="line2d_44">
     <path d="M 153 96.896563 
L 163 96.896563 
L 173 96.896563 
" style="fill: none; stroke-dasharray: 1.5,2.475; stroke-dashoffset: 0; stroke: #0000ff; stroke-width: 1.5"/>
    </g>
    <g id="text_29">
     <!-- f[1] -->
     <g transform="translate(181 100.396563)scale(0.1 -0.1)">
      <use xlink:href="#DejaVuSans-66"/>
      <use xlink:href="#DejaVuSans-5b" x="35.205078"/>
      <use xlink:href="#DejaVuSans-31" x="74.21875"/>
      <use xlink:href="#DejaVuSans-5d" x="137.841797"/>
     </g>
    </g>
    <g id="line2d_45">
     <path d="M 153 111.574688 
L 163 111.574688 
L 173 111.574688 
" style="fill: none; stroke-dasharray: 9.6,2.4,1.5,2.4; stroke-dashoffset: 0; stroke: #bf00bf; stroke-width: 1.5"/>
    </g>
    <g id="text_30">
     <!-- f[2] -->
     <g transform="translate(181 115.074688)scale(0.1 -0.1)">
      <use xlink:href="#DejaVuSans-66"/>
      <use xlink:href="#DejaVuSans-5b" x="35.205078"/>
      <use xlink:href="#DejaVuSans-32" x="74.21875"/>
      <use xlink:href="#DejaVuSans-5d" x="137.841797"/>
     </g>
    </g>
   </g>
  </g>
 </g>
 <defs>
  <clipPath id="p715267ed6c">
   <rect x="144" y="69.12" width="892.8" height="443.52"/>
  </clipPath>
 </defs>
</svg>
